<svg xmlns="http://www.w3.org/2000/svg" viewBox="0 0 1536 730" preserveAspectRatio="xMidYMid" width="1536" height="730" xmlns:xlink="http://www.w3.org/1999/xlink" style="shape-rendering:auto;display:block;background-position-x:0%;background-position-y:0%;background-size:auto;background-origin:padding-box;background-clip:border-box;background:scroll rgb(211, 204, 211) none  repeat;width:1536px;height:730px;;animation:none"><g><defs><g id="id1"><circle stroke-width="2" stroke="#37362f" fill="#d3ccd3" r="10" cy="0" cx="0" style="fill:rgb(211, 204, 211);stroke:rgb(55, 54, 47);;animation:none"></circle>

  
<path stroke-width="2" stroke="#37362f" fill="none" d="M-6.00 0.00 A6 6 0 0 1 -1.17 -5.88" style="fill:none;stroke:rgb(55, 54, 47);;animation:none"></path></g>
<g id="id2"><circle stroke-width="2" stroke="#37362f" fill="#d3ccd3" r="20" cy="0" cx="0" style="fill:rgb(211, 204, 211);stroke:rgb(55, 54, 47);;animation:none"></circle></g>
<g id="id3"><circle stroke-width="2" stroke="#37362f" fill="#d3ccd3" r="30" cy="0" cx="0" style="fill:rgb(211, 204, 211);stroke:rgb(55, 54, 47);;animation:none"></circle>

  
<path stroke-width="2" stroke="#37362f" fill="none" d="M-20.91 -9.75 A23.071796769724493 23.071796769724493 0 0 1 -3.51 -22.80" style="fill:none;stroke:rgb(55, 54, 47);;animation:none"></path></g>
<g id="id4"><circle stroke-width="2" stroke="#37362f" fill="#d3ccd3" r="40" cy="0" cx="0" style="fill:rgb(211, 204, 211);stroke:rgb(55, 54, 47);;animation:none"></circle>

  
<path stroke-width="2" stroke="#37362f" fill="none" d="M-25.39 -19.48 A32 32 0 0 1 -4.18 -31.73" style="fill:none;stroke:rgb(55, 54, 47);;animation:none"></path></g></defs>
<g transform="matrix(1,0,0,1,82,508.6399841308594)" style="transform:matrix(1, 0, 0, 1, 82, 508.64);;animation:none"><use href="#id2"></use></g>
<g transform="matrix(1,0,0,1,1057.5,188.04498291015625)" style="transform:matrix(1, 0, 0, 1, 1057.5, 188.045);;animation:none"><use href="#id1"></use></g>
<g transform="matrix(1,0,0,1,1276.5,96.8719482421875)" style="transform:matrix(1, 0, 0, 1, 1276.5, 96.8719);;animation:none"><use href="#id1"></use></g>
<g transform="matrix(1,0,0,1,1282.5,409.9280090332031)" style="transform:matrix(1, 0, 0, 1, 1282.5, 409.928);;animation:none"><use href="#id1"></use></g>
<g transform="matrix(1,0,0,1,359.5,78.25201416015625)" style="transform:matrix(1, 0, 0, 1, 359.5, 78.252);;animation:none"><use href="#id3"></use></g>
<g transform="matrix(1,0,0,1,65.30000305175781,465.97998046875)" style="transform:matrix(1, 0, 0, 1, 65.3, 465.98);;animation:none"><use href="#id1"></use></g>
<g transform="matrix(1,0,0,1,394.6000061035156,192.63800048828125)" style="transform:matrix(1, 0, 0, 1, 394.6, 192.638);;animation:none"><use href="#id1"></use></g>
<g transform="matrix(1,0,0,1,411.70001220703125,719.5679931640625)" style="transform:matrix(1, 0, 0, 1, 411.7, 719.568);;animation:none"><use href="#id1"></use></g>
<g transform="matrix(1,0,0,1,1283.9000244140625,68.75)" style="transform:matrix(1, 0, 0, 1, 1283.9, 68.75);;animation:none"><use href="#id1"></use></g>
<g transform="matrix(1,0,0,1,1217.800048828125,346.1500244140625)" style="transform:matrix(1, 0, 0, 1, 1217.8, 346.15);;animation:none"><use href="#id4"></use></g>
<g transform="matrix(1,0,0,1,630.5,155.33599853515625)" style="transform:matrix(1, 0, 0, 1, 630.5, 155.336);;animation:none"><use href="#id1"></use></g>
<g transform="matrix(1,0,0,1,978.9000244140625,614.5460205078125)" style="transform:matrix(1, 0, 0, 1, 978.9, 614.546);;animation:none"><use href="#id3"></use></g>
<g transform="matrix(1,0,0,1,1297.5999755859375,387.8179931640625)" style="transform:matrix(1, 0, 0, 1, 1297.6, 387.818);;animation:none"><use href="#id4"></use></g>
<g transform="matrix(1,0,0,1,1226.0999755859375,618.7039794921875)" style="transform:matrix(1, 0, 0, 1, 1226.1, 618.704);;animation:none"><use href="#id4"></use></g>
<g transform="matrix(1,0,0,1,624.2999877929688,743.9660034179688)" style="transform:matrix(1, 0, 0, 1, 624.3, 743.966);;animation:none"><use href="#id1"></use></g>
<g transform="matrix(1,0,0,1,1258.9000244140625,380.3680114746094)" style="transform:matrix(1, 0, 0, 1, 1258.9, 380.368);;animation:none"><use href="#id1"></use></g>
<g transform="matrix(1,0,0,1,131.3000030517578,21.469970703125)" style="transform:matrix(1, 0, 0, 1, 131.3, 21.47);;animation:none"><use href="#id3"></use></g>
<g transform="matrix(1,0,0,1,1440.4000244140625,598.760009765625)" style="transform:matrix(1, 0, 0, 1, 1440.4, 598.76);;animation:none"><use href="#id2"></use></g>
<g transform="matrix(1,0,0,1,126.30000305175781,372.739990234375)" style="transform:matrix(1, 0, 0, 1, 126.3, 372.74);;animation:none"><use href="#id3"></use></g>
<g transform="matrix(1,0,0,1,1246.0999755859375,349.7200012207031)" style="transform:matrix(1, 0, 0, 1, 1246.1, 349.72);;animation:none"><use href="#id1"></use></g>
<g transform="matrix(1,0,0,1,669.2000122070312,32.093994140625)" style="transform:matrix(1, 0, 0, 1, 669.2, 32.094);;animation:none"><use href="#id1"></use></g>
<g transform="matrix(1,0,0,1,1326.5999755859375,612.552001953125)" style="transform:matrix(1, 0, 0, 1, 1326.6, 612.552);;animation:none"><use href="#id1"></use></g>
<g transform="matrix(1,0,0,1,946.4000244140625,418.43798828125)" style="transform:matrix(1, 0, 0, 1, 946.4, 418.438);;animation:none"><use href="#id2"></use></g>
<g transform="matrix(1,0,0,1,331.70001220703125,4.46270751953125)" style="transform:matrix(1, 0, 0, 1, 331.7, 4.46271);;animation:none"><use href="#id1"></use></g>
<g transform="matrix(1,0,0,1,1493.199951171875,639.7044677734375)" style="transform:matrix(1, 0, 0, 1, 1493.2, 639.705);;animation:none"><use href="#id3"></use></g>
<g transform="matrix(1,0,0,1,1387.4000244140625,311.49700927734375)" style="transform:matrix(1, 0, 0, 1, 1387.4, 311.497);;animation:none"><use href="#id1"></use></g>
<g transform="matrix(1,0,0,1,1223.199951171875,488.4298400878906)" style="transform:matrix(1, 0, 0, 1, 1223.2, 488.43);;animation:none"><use href="#id2"></use></g>
<g transform="matrix(1,0,0,1,1016.0999755859375,264.6999816894531)" style="transform:matrix(1, 0, 0, 1, 1016.1, 264.7);;animation:none"><use href="#id2"></use></g>
<g transform="matrix(1,0,0,1,211.39999389648438,643.6328735351562)" style="transform:matrix(1, 0, 0, 1, 211.4, 643.633);;animation:none"><use href="#id1"></use></g>
<g transform="matrix(1,0,0,1,10.100000381469727,180.064208984375)" style="transform:matrix(1, 0, 0, 1, 10.1, 180.064);;animation:none"><use href="#id1"></use></g>
<g transform="matrix(1,0,0,1,332.1000061035156,594.1104125976562)" style="transform:matrix(1, 0, 0, 1, 332.1, 594.11);;animation:none"><use href="#id2"></use></g>
<g transform="matrix(1,0,0,1,307.29998779296875,169.906005859375)" style="transform:matrix(1, 0, 0, 1, 307.3, 169.906);;animation:none"><use href="#id1"></use></g>
<g transform="matrix(1,0,0,1,99.69999694824219,168.6746826171875)" style="transform:matrix(1, 0, 0, 1, 99.7, 168.675);;animation:none"><use href="#id2"></use></g>
<g transform="matrix(1,0,0,1,878,522.6880493164062)" style="transform:matrix(1, 0, 0, 1, 878, 522.688);;animation:none"><use href="#id1"></use></g>
<g transform="matrix(1,0,0,1,730,194.8089599609375)" style="transform:matrix(1, 0, 0, 1, 730, 194.809);;animation:none"><use href="#id1"></use></g>
<g></g></g><!-- [ldio] generated by https://loading.io --></svg>