<svg xmlns="http://www.w3.org/2000/svg" viewBox="0 0 3000 2000" preserveAspectRatio="xMidYMid" width="3000" height="2000" xmlns:xlink="http://www.w3.org/1999/xlink" style="shape-rendering:auto;display:block;background-position-x:0%;background-position-y:0%;background-size:auto;background-origin:padding-box;background-clip:border-box;background:scroll rgb(255, 255, 255) none  repeat;width:3000px;height:2000px;;animation:none"><g><g transform="matrix(1,0,0,1,0,0)" style="transform:matrix(1, 0, 0, 1, 0, 0);;animation:none"><path fill="#00ffff" d="M-150 -142.50A75 75 0 0 1 0 -142.50A75 75 0 0 1 150 -142.50A75 75 0 0 1 300 -142.50A75 75 0 0 1 450 -142.50A75 75 0 0 1 600 -142.50A75 75 0 0 1 750 -142.50A75 75 0 0 1 900 -142.50A75 75 0 0 1 1050 -142.50A75 75 0 0 1 1200 -142.50A75 75 0 0 1 1350 -142.50A75 75 0 0 1 1500 -142.50A75 75 0 0 1 1650 -142.50A75 75 0 0 1 1800 -142.50A75 75 0 0 1 1950 -142.50A75 75 0 0 1 2100 -142.50A75 75 0 0 1 2250 -142.50A75 75 0 0 1 2400 -142.50A75 75 0 0 1 2550 -142.50A75 75 0 0 1 2700 -142.50A75 75 0 0 1 2850 -142.50A75 75 0 0 1 3000 -142.50A75 75 0 0 1 3150 -142.50L-150 -142.50" transform="matrix(1,0,0,1,0,0)" style="fill:rgb(0, 255, 255);transform:matrix(1, 0, 0, 1, 0, 0);;animation:none"></path></g>
<g transform="matrix(1,0,0,1,0,0.16097523272037506)" style="transform:matrix(1, 0, 0, 1, 0, 0.160975);;animation:none"><path fill="#00fcfd" d="M-75 -112.50A75 75 0 0 1 75 -112.50A75 75 0 0 1 225 -112.50A75 75 0 0 1 375 -112.50A75 75 0 0 1 525 -112.50A75 75 0 0 1 675 -112.50A75 75 0 0 1 825 -112.50A75 75 0 0 1 975 -112.50A75 75 0 0 1 1125 -112.50A75 75 0 0 1 1275 -112.50A75 75 0 0 1 1425 -112.50A75 75 0 0 1 1575 -112.50A75 75 0 0 1 1725 -112.50A75 75 0 0 1 1875 -112.50A75 75 0 0 1 2025 -112.50A75 75 0 0 1 2175 -112.50A75 75 0 0 1 2325 -112.50A75 75 0 0 1 2475 -112.50A75 75 0 0 1 2625 -112.50A75 75 0 0 1 2775 -112.50A75 75 0 0 1 2925 -112.50A75 75 0 0 1 3075 -112.50A75 75 0 0 1 3225 -112.50L-75 -112.50" transform="matrix(1,0,0,1,0.4194718599319458,0)" style="fill:rgb(0, 252, 253);transform:matrix(1, 0, 0, 1, 0.419472, 0);;animation:none"></path></g>
<g transform="matrix(1,0,0,1,0,0.7247430086135864)" style="transform:matrix(1, 0, 0, 1, 0, 0.724743);;animation:none"><path fill="#00fafa" d="M-150 -82.50A75 75 0 0 1 0 -82.50A75 75 0 0 1 150 -82.50A75 75 0 0 1 300 -82.50A75 75 0 0 1 450 -82.50A75 75 0 0 1 600 -82.50A75 75 0 0 1 750 -82.50A75 75 0 0 1 900 -82.50A75 75 0 0 1 1050 -82.50A75 75 0 0 1 1200 -82.50A75 75 0 0 1 1350 -82.50A75 75 0 0 1 1500 -82.50A75 75 0 0 1 1650 -82.50A75 75 0 0 1 1800 -82.50A75 75 0 0 1 1950 -82.50A75 75 0 0 1 2100 -82.50A75 75 0 0 1 2250 -82.50A75 75 0 0 1 2400 -82.50A75 75 0 0 1 2550 -82.50A75 75 0 0 1 2700 -82.50A75 75 0 0 1 2850 -82.50A75 75 0 0 1 3000 -82.50A75 75 0 0 1 3150 -82.50L-150 -82.50" transform="matrix(1,0,0,1,1.5877271890640259,0)" style="fill:rgb(0, 250, 250);transform:matrix(1, 0, 0, 1, 1.58773, 0);;animation:none"></path></g>
<g transform="matrix(1,0,0,1,0,1.822096824645996)" style="transform:matrix(1, 0, 0, 1, 0, 1.8221);;animation:none"><path fill="#01f7f8" d="M-75 -52.50A75 75 0 0 1 75 -52.50A75 75 0 0 1 225 -52.50A75 75 0 0 1 375 -52.50A75 75 0 0 1 525 -52.50A75 75 0 0 1 675 -52.50A75 75 0 0 1 825 -52.50A75 75 0 0 1 975 -52.50A75 75 0 0 1 1125 -52.50A75 75 0 0 1 1275 -52.50A75 75 0 0 1 1425 -52.50A75 75 0 0 1 1575 -52.50A75 75 0 0 1 1725 -52.50A75 75 0 0 1 1875 -52.50A75 75 0 0 1 2025 -52.50A75 75 0 0 1 2175 -52.50A75 75 0 0 1 2325 -52.50A75 75 0 0 1 2475 -52.50A75 75 0 0 1 2625 -52.50A75 75 0 0 1 2775 -52.50A75 75 0 0 1 2925 -52.50A75 75 0 0 1 3075 -52.50A75 75 0 0 1 3225 -52.50L-75 -52.50" transform="matrix(1,0,0,1,3.3876266479492188,0)" style="fill:rgb(1, 247, 248);transform:matrix(1, 0, 0, 1, 3.38763, 0);;animation:none"></path></g>
<g transform="matrix(1,0,0,1,0,3.450561285018921)" style="transform:matrix(1, 0, 0, 1, 0, 3.45056);;animation:none"><path fill="#01f5f6" d="M-150 -22.50A75 75 0 0 1 0 -22.50A75 75 0 0 1 150 -22.50A75 75 0 0 1 300 -22.50A75 75 0 0 1 450 -22.50A75 75 0 0 1 600 -22.50A75 75 0 0 1 750 -22.50A75 75 0 0 1 900 -22.50A75 75 0 0 1 1050 -22.50A75 75 0 0 1 1200 -22.50A75 75 0 0 1 1350 -22.50A75 75 0 0 1 1500 -22.50A75 75 0 0 1 1650 -22.50A75 75 0 0 1 1800 -22.50A75 75 0 0 1 1950 -22.50A75 75 0 0 1 2100 -22.50A75 75 0 0 1 2250 -22.50A75 75 0 0 1 2400 -22.50A75 75 0 0 1 2550 -22.50A75 75 0 0 1 2700 -22.50A75 75 0 0 1 2850 -22.50A75 75 0 0 1 3000 -22.50A75 75 0 0 1 3150 -22.50L-150 -22.50" transform="matrix(1,0,0,1,5.721282482147217,0)" style="fill:rgb(1, 245, 246);transform:matrix(1, 0, 0, 1, 5.72128, 0);;animation:none"></path></g>
<g transform="matrix(1,0,0,1,0,5.18349552154541)" style="transform:matrix(1, 0, 0, 1, 0, 5.1835);;animation:none"><path fill="#01f2f3" d="M-75 7.50A75 75 0 0 1 75 7.50A75 75 0 0 1 225 7.50A75 75 0 0 1 375 7.50A75 75 0 0 1 525 7.50A75 75 0 0 1 675 7.50A75 75 0 0 1 825 7.50A75 75 0 0 1 975 7.50A75 75 0 0 1 1125 7.50A75 75 0 0 1 1275 7.50A75 75 0 0 1 1425 7.50A75 75 0 0 1 1575 7.50A75 75 0 0 1 1725 7.50A75 75 0 0 1 1875 7.50A75 75 0 0 1 2025 7.50A75 75 0 0 1 2175 7.50A75 75 0 0 1 2325 7.50A75 75 0 0 1 2475 7.50A75 75 0 0 1 2625 7.50A75 75 0 0 1 2775 7.50A75 75 0 0 1 2925 7.50A75 75 0 0 1 3075 7.50A75 75 0 0 1 3225 7.50L-75 7.50" transform="matrix(1,0,0,1,8.50511360168457,0)" style="fill:rgb(1, 242, 243);transform:matrix(1, 0, 0, 1, 8.50511, 0);;animation:none"></path></g>
<g transform="matrix(1,0,0,1,0,6.474194526672363)" style="transform:matrix(1, 0, 0, 1, 0, 6.47419);;animation:none"><path fill="#01f0f1" d="M-150 37.50A75 75 0 0 1 0 37.50A75 75 0 0 1 150 37.50A75 75 0 0 1 300 37.50A75 75 0 0 1 450 37.50A75 75 0 0 1 600 37.50A75 75 0 0 1 750 37.50A75 75 0 0 1 900 37.50A75 75 0 0 1 1050 37.50A75 75 0 0 1 1200 37.50A75 75 0 0 1 1350 37.50A75 75 0 0 1 1500 37.50A75 75 0 0 1 1650 37.50A75 75 0 0 1 1800 37.50A75 75 0 0 1 1950 37.50A75 75 0 0 1 2100 37.50A75 75 0 0 1 2250 37.50A75 75 0 0 1 2400 37.50A75 75 0 0 1 2550 37.50A75 75 0 0 1 2700 37.50A75 75 0 0 1 2850 37.50A75 75 0 0 1 3000 37.50A75 75 0 0 1 3150 37.50L-150 37.50" transform="matrix(1,0,0,1,11.66668701171875,0)" style="fill:rgb(1, 240, 241);transform:matrix(1, 0, 0, 1, 11.6667, 0);;animation:none"></path></g>
<g transform="matrix(1,0,0,1,0,7.202434539794922)" style="transform:matrix(1, 0, 0, 1, 0, 7.20243);;animation:none"><path fill="#02edef" d="M-75 67.50A75 75 0 0 1 75 67.50A75 75 0 0 1 225 67.50A75 75 0 0 1 375 67.50A75 75 0 0 1 525 67.50A75 75 0 0 1 675 67.50A75 75 0 0 1 825 67.50A75 75 0 0 1 975 67.50A75 75 0 0 1 1125 67.50A75 75 0 0 1 1275 67.50A75 75 0 0 1 1425 67.50A75 75 0 0 1 1575 67.50A75 75 0 0 1 1725 67.50A75 75 0 0 1 1875 67.50A75 75 0 0 1 2025 67.50A75 75 0 0 1 2175 67.50A75 75 0 0 1 2325 67.50A75 75 0 0 1 2475 67.50A75 75 0 0 1 2625 67.50A75 75 0 0 1 2775 67.50A75 75 0 0 1 2925 67.50A75 75 0 0 1 3075 67.50A75 75 0 0 1 3225 67.50L-75 67.50" transform="matrix(1,0,0,1,15.141888618469238,0)" style="fill:rgb(2, 237, 239);transform:matrix(1, 0, 0, 1, 15.1419, 0);;animation:none"></path></g>
<g transform="matrix(1,0,0,1,0,7.483410835266113)" style="transform:matrix(1, 0, 0, 1, 0, 7.48341);;animation:none"><path fill="#02ebec" d="M-150 97.50A75 75 0 0 1 0 97.50A75 75 0 0 1 150 97.50A75 75 0 0 1 300 97.50A75 75 0 0 1 450 97.50A75 75 0 0 1 600 97.50A75 75 0 0 1 750 97.50A75 75 0 0 1 900 97.50A75 75 0 0 1 1050 97.50A75 75 0 0 1 1200 97.50A75 75 0 0 1 1350 97.50A75 75 0 0 1 1500 97.50A75 75 0 0 1 1650 97.50A75 75 0 0 1 1800 97.50A75 75 0 0 1 1950 97.50A75 75 0 0 1 2100 97.50A75 75 0 0 1 2250 97.50A75 75 0 0 1 2400 97.50A75 75 0 0 1 2550 97.50A75 75 0 0 1 2700 97.50A75 75 0 0 1 2850 97.50A75 75 0 0 1 3000 97.50A75 75 0 0 1 3150 97.50L-150 97.50" transform="matrix(1,0,0,1,18.87311363220215,0)" style="fill:rgb(2, 235, 236);transform:matrix(1, 0, 0, 1, 18.8731, 0);;animation:none"></path></g>
<g transform="matrix(1,0,0,1,0,7.43113374710083)" style="transform:matrix(1, 0, 0, 1, 0, 7.43113);;animation:none"><path fill="#02e8ea" d="M-75 127.50A75 75 0 0 1 75 127.50A75 75 0 0 1 225 127.50A75 75 0 0 1 375 127.50A75 75 0 0 1 525 127.50A75 75 0 0 1 675 127.50A75 75 0 0 1 825 127.50A75 75 0 0 1 975 127.50A75 75 0 0 1 1125 127.50A75 75 0 0 1 1275 127.50A75 75 0 0 1 1425 127.50A75 75 0 0 1 1575 127.50A75 75 0 0 1 1725 127.50A75 75 0 0 1 1875 127.50A75 75 0 0 1 2025 127.50A75 75 0 0 1 2175 127.50A75 75 0 0 1 2325 127.50A75 75 0 0 1 2475 127.50A75 75 0 0 1 2625 127.50A75 75 0 0 1 2775 127.50A75 75 0 0 1 2925 127.50A75 75 0 0 1 3075 127.50A75 75 0 0 1 3225 127.50L-75 127.50" transform="matrix(1,0,0,1,22.807893753051758,0)" style="fill:rgb(2, 232, 234);transform:matrix(1, 0, 0, 1, 22.8079, 0);;animation:none"></path></g>
<g transform="matrix(1,0,0,1,0,7.016292572021484)" style="transform:matrix(1, 0, 0, 1, 0, 7.01629);;animation:none"><path fill="#02e6e8" d="M-150 157.50A75 75 0 0 1 0 157.50A75 75 0 0 1 150 157.50A75 75 0 0 1 300 157.50A75 75 0 0 1 450 157.50A75 75 0 0 1 600 157.50A75 75 0 0 1 750 157.50A75 75 0 0 1 900 157.50A75 75 0 0 1 1050 157.50A75 75 0 0 1 1200 157.50A75 75 0 0 1 1350 157.50A75 75 0 0 1 1500 157.50A75 75 0 0 1 1650 157.50A75 75 0 0 1 1800 157.50A75 75 0 0 1 1950 157.50A75 75 0 0 1 2100 157.50A75 75 0 0 1 2250 157.50A75 75 0 0 1 2400 157.50A75 75 0 0 1 2550 157.50A75 75 0 0 1 2700 157.50A75 75 0 0 1 2850 157.50A75 75 0 0 1 3000 157.50A75 75 0 0 1 3150 157.50L-150 157.50" transform="matrix(1,0,0,1,26.897319793701172,0)" style="fill:rgb(2, 230, 232);transform:matrix(1, 0, 0, 1, 26.8973, 0);;animation:none"></path></g>
<g transform="matrix(1,0,0,1,0,6.108994483947754)" style="transform:matrix(1, 0, 0, 1, 0, 6.10899);;animation:none"><path fill="#03e3e5" d="M-75 187.50A75 75 0 0 1 75 187.50A75 75 0 0 1 225 187.50A75 75 0 0 1 375 187.50A75 75 0 0 1 525 187.50A75 75 0 0 1 675 187.50A75 75 0 0 1 825 187.50A75 75 0 0 1 975 187.50A75 75 0 0 1 1125 187.50A75 75 0 0 1 1275 187.50A75 75 0 0 1 1425 187.50A75 75 0 0 1 1575 187.50A75 75 0 0 1 1725 187.50A75 75 0 0 1 1875 187.50A75 75 0 0 1 2025 187.50A75 75 0 0 1 2175 187.50A75 75 0 0 1 2325 187.50A75 75 0 0 1 2475 187.50A75 75 0 0 1 2625 187.50A75 75 0 0 1 2775 187.50A75 75 0 0 1 2925 187.50A75 75 0 0 1 3075 187.50A75 75 0 0 1 3225 187.50L-75 187.50" transform="matrix(1,0,0,1,31.095447540283203,0)" style="fill:rgb(3, 227, 229);transform:matrix(1, 0, 0, 1, 31.0954, 0);;animation:none"></path></g>
<g transform="matrix(1,0,0,1,0,4.635038375854492)" style="transform:matrix(1, 0, 0, 1, 0, 4.63504);;animation:none"><path fill="#03e1e3" d="M-150 217.50A75 75 0 0 1 0 217.50A75 75 0 0 1 150 217.50A75 75 0 0 1 300 217.50A75 75 0 0 1 450 217.50A75 75 0 0 1 600 217.50A75 75 0 0 1 750 217.50A75 75 0 0 1 900 217.50A75 75 0 0 1 1050 217.50A75 75 0 0 1 1200 217.50A75 75 0 0 1 1350 217.50A75 75 0 0 1 1500 217.50A75 75 0 0 1 1650 217.50A75 75 0 0 1 1800 217.50A75 75 0 0 1 1950 217.50A75 75 0 0 1 2100 217.50A75 75 0 0 1 2250 217.50A75 75 0 0 1 2400 217.50A75 75 0 0 1 2550 217.50A75 75 0 0 1 2700 217.50A75 75 0 0 1 2850 217.50A75 75 0 0 1 3000 217.50A75 75 0 0 1 3150 217.50L-150 217.50" transform="matrix(1,0,0,1,35.35798263549805,0)" style="fill:rgb(3, 225, 227);transform:matrix(1, 0, 0, 1, 35.358, 0);;animation:none"></path></g>
<g transform="matrix(1,0,0,1,0,2.8649849891662598)" style="transform:matrix(1, 0, 0, 1, 0, 2.86498);;animation:none"><path fill="#03dee1" d="M-75 247.50A75 75 0 0 1 75 247.50A75 75 0 0 1 225 247.50A75 75 0 0 1 375 247.50A75 75 0 0 1 525 247.50A75 75 0 0 1 675 247.50A75 75 0 0 1 825 247.50A75 75 0 0 1 975 247.50A75 75 0 0 1 1125 247.50A75 75 0 0 1 1275 247.50A75 75 0 0 1 1425 247.50A75 75 0 0 1 1575 247.50A75 75 0 0 1 1725 247.50A75 75 0 0 1 1875 247.50A75 75 0 0 1 2025 247.50A75 75 0 0 1 2175 247.50A75 75 0 0 1 2325 247.50A75 75 0 0 1 2475 247.50A75 75 0 0 1 2625 247.50A75 75 0 0 1 2775 247.50A75 75 0 0 1 2925 247.50A75 75 0 0 1 3075 247.50A75 75 0 0 1 3225 247.50L-75 247.50" transform="matrix(1,0,0,1,39.64194107055664,0)" style="fill:rgb(3, 222, 225);transform:matrix(1, 0, 0, 1, 39.6419, 0);;animation:none"></path></g>
<g transform="matrix(1,0,0,1,0,1.391005516052246)" style="transform:matrix(1, 0, 0, 1, 0, 1.39101);;animation:none"><path fill="#03dcde" d="M-150 277.50A75 75 0 0 1 0 277.50A75 75 0 0 1 150 277.50A75 75 0 0 1 300 277.50A75 75 0 0 1 450 277.50A75 75 0 0 1 600 277.50A75 75 0 0 1 750 277.50A75 75 0 0 1 900 277.50A75 75 0 0 1 1050 277.50A75 75 0 0 1 1200 277.50A75 75 0 0 1 1350 277.50A75 75 0 0 1 1500 277.50A75 75 0 0 1 1650 277.50A75 75 0 0 1 1800 277.50A75 75 0 0 1 1950 277.50A75 75 0 0 1 2100 277.50A75 75 0 0 1 2250 277.50A75 75 0 0 1 2400 277.50A75 75 0 0 1 2550 277.50A75 75 0 0 1 2700 277.50A75 75 0 0 1 2850 277.50A75 75 0 0 1 3000 277.50A75 75 0 0 1 3150 277.50L-150 277.50" transform="matrix(1,0,0,1,43.904537200927734,0)" style="fill:rgb(3, 220, 222);transform:matrix(1, 0, 0, 1, 43.9045, 0);;animation:none"></path></g>
<g transform="matrix(1,0,0,1,0,0.4837164878845215)" style="transform:matrix(1, 0, 0, 1, 0, 0.483716);;animation:none"><path fill="#04d9dc" d="M-75 307.50A75 75 0 0 1 75 307.50A75 75 0 0 1 225 307.50A75 75 0 0 1 375 307.50A75 75 0 0 1 525 307.50A75 75 0 0 1 675 307.50A75 75 0 0 1 825 307.50A75 75 0 0 1 975 307.50A75 75 0 0 1 1125 307.50A75 75 0 0 1 1275 307.50A75 75 0 0 1 1425 307.50A75 75 0 0 1 1575 307.50A75 75 0 0 1 1725 307.50A75 75 0 0 1 1875 307.50A75 75 0 0 1 2025 307.50A75 75 0 0 1 2175 307.50A75 75 0 0 1 2325 307.50A75 75 0 0 1 2475 307.50A75 75 0 0 1 2625 307.50A75 75 0 0 1 2775 307.50A75 75 0 0 1 2925 307.50A75 75 0 0 1 3075 307.50A75 75 0 0 1 3225 307.50L-75 307.50" transform="matrix(1,0,0,1,48.10260772705078,0)" style="fill:rgb(4, 217, 220);transform:matrix(1, 0, 0, 1, 48.1026, 0);;animation:none"></path></g>
<g transform="matrix(1,0,0,1,0,0.06886625289916992)" style="transform:matrix(1, 0, 0, 1, 0, 0.0688663);;animation:none"><path fill="#04d7da" d="M-150 337.50A75 75 0 0 1 0 337.50A75 75 0 0 1 150 337.50A75 75 0 0 1 300 337.50A75 75 0 0 1 450 337.50A75 75 0 0 1 600 337.50A75 75 0 0 1 750 337.50A75 75 0 0 1 900 337.50A75 75 0 0 1 1050 337.50A75 75 0 0 1 1200 337.50A75 75 0 0 1 1350 337.50A75 75 0 0 1 1500 337.50A75 75 0 0 1 1650 337.50A75 75 0 0 1 1800 337.50A75 75 0 0 1 1950 337.50A75 75 0 0 1 2100 337.50A75 75 0 0 1 2250 337.50A75 75 0 0 1 2400 337.50A75 75 0 0 1 2550 337.50A75 75 0 0 1 2700 337.50A75 75 0 0 1 2850 337.50A75 75 0 0 1 3000 337.50A75 75 0 0 1 3150 337.50L-150 337.50" transform="matrix(1,0,0,1,52.19208908081055,0)" style="fill:rgb(4, 215, 218);transform:matrix(1, 0, 0, 1, 52.1921, 0);;animation:none"></path></g>
<g transform="matrix(1,0,0,1,0,-0.016587404534220695)" style="transform:matrix(1, 0, 0, 1, 0, -0.0165874);;animation:none"><path fill="#04d4d7" d="M-75 367.50A75 75 0 0 1 75 367.50A75 75 0 0 1 225 367.50A75 75 0 0 1 375 367.50A75 75 0 0 1 525 367.50A75 75 0 0 1 675 367.50A75 75 0 0 1 825 367.50A75 75 0 0 1 975 367.50A75 75 0 0 1 1125 367.50A75 75 0 0 1 1275 367.50A75 75 0 0 1 1425 367.50A75 75 0 0 1 1575 367.50A75 75 0 0 1 1725 367.50A75 75 0 0 1 1875 367.50A75 75 0 0 1 2025 367.50A75 75 0 0 1 2175 367.50A75 75 0 0 1 2325 367.50A75 75 0 0 1 2475 367.50A75 75 0 0 1 2625 367.50A75 75 0 0 1 2775 367.50A75 75 0 0 1 2925 367.50A75 75 0 0 1 3075 367.50A75 75 0 0 1 3225 367.50L-75 367.50" transform="matrix(1,0,0,1,56.1268196105957,0)" style="fill:rgb(4, 212, 215);transform:matrix(1, 0, 0, 1, 56.1268, 0);;animation:none"></path></g>
<g transform="matrix(1,0,0,1,0,-0.2975655496120453)" style="transform:matrix(1, 0, 0, 1, 0, -0.297566);;animation:none"><path fill="#04d2d5" d="M-150 397.50A75 75 0 0 1 0 397.50A75 75 0 0 1 150 397.50A75 75 0 0 1 300 397.50A75 75 0 0 1 450 397.50A75 75 0 0 1 600 397.50A75 75 0 0 1 750 397.50A75 75 0 0 1 900 397.50A75 75 0 0 1 1050 397.50A75 75 0 0 1 1200 397.50A75 75 0 0 1 1350 397.50A75 75 0 0 1 1500 397.50A75 75 0 0 1 1650 397.50A75 75 0 0 1 1800 397.50A75 75 0 0 1 1950 397.50A75 75 0 0 1 2100 397.50A75 75 0 0 1 2250 397.50A75 75 0 0 1 2400 397.50A75 75 0 0 1 2550 397.50A75 75 0 0 1 2700 397.50A75 75 0 0 1 2850 397.50A75 75 0 0 1 3000 397.50A75 75 0 0 1 3150 397.50L-150 397.50" transform="matrix(1,0,0,1,59.858097076416016,0)" style="fill:rgb(4, 210, 213);transform:matrix(1, 0, 0, 1, 59.8581, 0);;animation:none"></path></g>
<g transform="matrix(1,0,0,1,0,-1.025792121887207)" style="transform:matrix(1, 0, 0, 1, 0, -1.02579);;animation:none"><path fill="#05cfd3" d="M-75 427.50A75 75 0 0 1 75 427.50A75 75 0 0 1 225 427.50A75 75 0 0 1 375 427.50A75 75 0 0 1 525 427.50A75 75 0 0 1 675 427.50A75 75 0 0 1 825 427.50A75 75 0 0 1 975 427.50A75 75 0 0 1 1125 427.50A75 75 0 0 1 1275 427.50A75 75 0 0 1 1425 427.50A75 75 0 0 1 1575 427.50A75 75 0 0 1 1725 427.50A75 75 0 0 1 1875 427.50A75 75 0 0 1 2025 427.50A75 75 0 0 1 2175 427.50A75 75 0 0 1 2325 427.50A75 75 0 0 1 2475 427.50A75 75 0 0 1 2625 427.50A75 75 0 0 1 2775 427.50A75 75 0 0 1 2925 427.50A75 75 0 0 1 3075 427.50A75 75 0 0 1 3225 427.50L-75 427.50" transform="matrix(1,0,0,1,63.333251953125,0)" style="fill:rgb(5, 207, 211);transform:matrix(1, 0, 0, 1, 63.3333, 0);;animation:none"></path></g>
<g transform="matrix(1,0,0,1,0,-2.3164823055267334)" style="transform:matrix(1, 0, 0, 1, 0, -2.31648);;animation:none"><path fill="#05cdd0" d="M-150 457.50A75 75 0 0 1 0 457.50A75 75 0 0 1 150 457.50A75 75 0 0 1 300 457.50A75 75 0 0 1 450 457.50A75 75 0 0 1 600 457.50A75 75 0 0 1 750 457.50A75 75 0 0 1 900 457.50A75 75 0 0 1 1050 457.50A75 75 0 0 1 1200 457.50A75 75 0 0 1 1350 457.50A75 75 0 0 1 1500 457.50A75 75 0 0 1 1650 457.50A75 75 0 0 1 1800 457.50A75 75 0 0 1 1950 457.50A75 75 0 0 1 2100 457.50A75 75 0 0 1 2250 457.50A75 75 0 0 1 2400 457.50A75 75 0 0 1 2550 457.50A75 75 0 0 1 2700 457.50A75 75 0 0 1 2850 457.50A75 75 0 0 1 3000 457.50A75 75 0 0 1 3150 457.50L-150 457.50" transform="matrix(1,0,0,1,66.49483489990234,0)" style="fill:rgb(5, 205, 208);transform:matrix(1, 0, 0, 1, 66.4948, 0);;animation:none"></path></g>
<g transform="matrix(1,0,0,1,0,-4.049439430236816)" style="transform:matrix(1, 0, 0, 1, 0, -4.04944);;animation:none"><path fill="#05cace" d="M-75 487.50A75 75 0 0 1 75 487.50A75 75 0 0 1 225 487.50A75 75 0 0 1 375 487.50A75 75 0 0 1 525 487.50A75 75 0 0 1 675 487.50A75 75 0 0 1 825 487.50A75 75 0 0 1 975 487.50A75 75 0 0 1 1125 487.50A75 75 0 0 1 1275 487.50A75 75 0 0 1 1425 487.50A75 75 0 0 1 1575 487.50A75 75 0 0 1 1725 487.50A75 75 0 0 1 1875 487.50A75 75 0 0 1 2025 487.50A75 75 0 0 1 2175 487.50A75 75 0 0 1 2325 487.50A75 75 0 0 1 2475 487.50A75 75 0 0 1 2625 487.50A75 75 0 0 1 2775 487.50A75 75 0 0 1 2925 487.50A75 75 0 0 1 3075 487.50A75 75 0 0 1 3225 487.50L-75 487.50" transform="matrix(1,0,0,1,69.2787094116211,0)" style="fill:rgb(5, 202, 206);transform:matrix(1, 0, 0, 1, 69.2787, 0);;animation:none"></path></g>
<g transform="matrix(1,0,0,1,0,-5.677882671356201)" style="transform:matrix(1, 0, 0, 1, 0, -5.67788);;animation:none"><path fill="#05c8cc" d="M-150 517.50A75 75 0 0 1 0 517.50A75 75 0 0 1 150 517.50A75 75 0 0 1 300 517.50A75 75 0 0 1 450 517.50A75 75 0 0 1 600 517.50A75 75 0 0 1 750 517.50A75 75 0 0 1 900 517.50A75 75 0 0 1 1050 517.50A75 75 0 0 1 1200 517.50A75 75 0 0 1 1350 517.50A75 75 0 0 1 1500 517.50A75 75 0 0 1 1650 517.50A75 75 0 0 1 1800 517.50A75 75 0 0 1 1950 517.50A75 75 0 0 1 2100 517.50A75 75 0 0 1 2250 517.50A75 75 0 0 1 2400 517.50A75 75 0 0 1 2550 517.50A75 75 0 0 1 2700 517.50A75 75 0 0 1 2850 517.50A75 75 0 0 1 3000 517.50A75 75 0 0 1 3150 517.50L-150 517.50" transform="matrix(1,0,0,1,71.61233520507812,0)" style="fill:rgb(5, 200, 204);transform:matrix(1, 0, 0, 1, 71.6123, 0);;animation:none"></path></g>
<g transform="matrix(1,0,0,1,0,-6.775257110595703)" style="transform:matrix(1, 0, 0, 1, 0, -6.77526);;animation:none"><path fill="#06c5c9" d="M-75 547.50A75 75 0 0 1 75 547.50A75 75 0 0 1 225 547.50A75 75 0 0 1 375 547.50A75 75 0 0 1 525 547.50A75 75 0 0 1 675 547.50A75 75 0 0 1 825 547.50A75 75 0 0 1 975 547.50A75 75 0 0 1 1125 547.50A75 75 0 0 1 1275 547.50A75 75 0 0 1 1425 547.50A75 75 0 0 1 1575 547.50A75 75 0 0 1 1725 547.50A75 75 0 0 1 1875 547.50A75 75 0 0 1 2025 547.50A75 75 0 0 1 2175 547.50A75 75 0 0 1 2325 547.50A75 75 0 0 1 2475 547.50A75 75 0 0 1 2625 547.50A75 75 0 0 1 2775 547.50A75 75 0 0 1 2925 547.50A75 75 0 0 1 3075 547.50A75 75 0 0 1 3225 547.50L-75 547.50" transform="matrix(1,0,0,1,73.41226959228516,0)" style="fill:rgb(6, 197, 201);transform:matrix(1, 0, 0, 1, 73.4123, 0);;animation:none"></path></g>
<g transform="matrix(1,0,0,1,0,-7.339019775390625)" style="transform:matrix(1, 0, 0, 1, 0, -7.33902);;animation:none"><path fill="#06c3c7" d="M-150 577.50A75 75 0 0 1 0 577.50A75 75 0 0 1 150 577.50A75 75 0 0 1 300 577.50A75 75 0 0 1 450 577.50A75 75 0 0 1 600 577.50A75 75 0 0 1 750 577.50A75 75 0 0 1 900 577.50A75 75 0 0 1 1050 577.50A75 75 0 0 1 1200 577.50A75 75 0 0 1 1350 577.50A75 75 0 0 1 1500 577.50A75 75 0 0 1 1650 577.50A75 75 0 0 1 1800 577.50A75 75 0 0 1 1950 577.50A75 75 0 0 1 2100 577.50A75 75 0 0 1 2250 577.50A75 75 0 0 1 2400 577.50A75 75 0 0 1 2550 577.50A75 75 0 0 1 2700 577.50A75 75 0 0 1 2850 577.50A75 75 0 0 1 3000 577.50A75 75 0 0 1 3150 577.50L-150 577.50" transform="matrix(1,0,0,1,74.58051300048828,0)" style="fill:rgb(6, 195, 199);transform:matrix(1, 0, 0, 1, 74.5805, 0);;animation:none"></path></g>
<g transform="matrix(1,0,0,1,0,-7.5)" style="transform:matrix(1, 0, 0, 1, 0, -7.5);;animation:none"><path fill="#06c0c5" d="M-75 607.50A75 75 0 0 1 75 607.50A75 75 0 0 1 225 607.50A75 75 0 0 1 375 607.50A75 75 0 0 1 525 607.50A75 75 0 0 1 675 607.50A75 75 0 0 1 825 607.50A75 75 0 0 1 975 607.50A75 75 0 0 1 1125 607.50A75 75 0 0 1 1275 607.50A75 75 0 0 1 1425 607.50A75 75 0 0 1 1575 607.50A75 75 0 0 1 1725 607.50A75 75 0 0 1 1875 607.50A75 75 0 0 1 2025 607.50A75 75 0 0 1 2175 607.50A75 75 0 0 1 2325 607.50A75 75 0 0 1 2475 607.50A75 75 0 0 1 2625 607.50A75 75 0 0 1 2775 607.50A75 75 0 0 1 2925 607.50A75 75 0 0 1 3075 607.50A75 75 0 0 1 3225 607.50L-75 607.50" transform="matrix(1,0,0,1,75,0)" style="fill:rgb(6, 192, 197);transform:matrix(1, 0, 0, 1, 75, 0);;animation:none"></path></g>
<g transform="matrix(1,0,0,1,0,-7.339024543762207)" style="transform:matrix(1, 0, 0, 1, 0, -7.33902);;animation:none"><path fill="#06bec2" d="M-150 637.50A75 75 0 0 1 0 637.50A75 75 0 0 1 150 637.50A75 75 0 0 1 300 637.50A75 75 0 0 1 450 637.50A75 75 0 0 1 600 637.50A75 75 0 0 1 750 637.50A75 75 0 0 1 900 637.50A75 75 0 0 1 1050 637.50A75 75 0 0 1 1200 637.50A75 75 0 0 1 1350 637.50A75 75 0 0 1 1500 637.50A75 75 0 0 1 1650 637.50A75 75 0 0 1 1800 637.50A75 75 0 0 1 1950 637.50A75 75 0 0 1 2100 637.50A75 75 0 0 1 2250 637.50A75 75 0 0 1 2400 637.50A75 75 0 0 1 2550 637.50A75 75 0 0 1 2700 637.50A75 75 0 0 1 2850 637.50A75 75 0 0 1 3000 637.50A75 75 0 0 1 3150 637.50L-150 637.50" transform="matrix(1,0,0,1,74.58053588867188,0)" style="fill:rgb(6, 190, 194);transform:matrix(1, 0, 0, 1, 74.5805, 0);;animation:none"></path></g>
<g transform="matrix(1,0,0,1,0,-6.775257110595703)" style="transform:matrix(1, 0, 0, 1, 0, -6.77526);;animation:none"><path fill="#07bbc0" d="M-75 667.50A75 75 0 0 1 75 667.50A75 75 0 0 1 225 667.50A75 75 0 0 1 375 667.50A75 75 0 0 1 525 667.50A75 75 0 0 1 675 667.50A75 75 0 0 1 825 667.50A75 75 0 0 1 975 667.50A75 75 0 0 1 1125 667.50A75 75 0 0 1 1275 667.50A75 75 0 0 1 1425 667.50A75 75 0 0 1 1575 667.50A75 75 0 0 1 1725 667.50A75 75 0 0 1 1875 667.50A75 75 0 0 1 2025 667.50A75 75 0 0 1 2175 667.50A75 75 0 0 1 2325 667.50A75 75 0 0 1 2475 667.50A75 75 0 0 1 2625 667.50A75 75 0 0 1 2775 667.50A75 75 0 0 1 2925 667.50A75 75 0 0 1 3075 667.50A75 75 0 0 1 3225 667.50L-75 667.50" transform="matrix(1,0,0,1,73.41227722167969,0)" style="fill:rgb(7, 187, 192);transform:matrix(1, 0, 0, 1, 73.4123, 0);;animation:none"></path></g>
<g transform="matrix(1,0,0,1,0,-5.677882671356201)" style="transform:matrix(1, 0, 0, 1, 0, -5.67788);;animation:none"><path fill="#07b9be" d="M-150 697.50A75 75 0 0 1 0 697.50A75 75 0 0 1 150 697.50A75 75 0 0 1 300 697.50A75 75 0 0 1 450 697.50A75 75 0 0 1 600 697.50A75 75 0 0 1 750 697.50A75 75 0 0 1 900 697.50A75 75 0 0 1 1050 697.50A75 75 0 0 1 1200 697.50A75 75 0 0 1 1350 697.50A75 75 0 0 1 1500 697.50A75 75 0 0 1 1650 697.50A75 75 0 0 1 1800 697.50A75 75 0 0 1 1950 697.50A75 75 0 0 1 2100 697.50A75 75 0 0 1 2250 697.50A75 75 0 0 1 2400 697.50A75 75 0 0 1 2550 697.50A75 75 0 0 1 2700 697.50A75 75 0 0 1 2850 697.50A75 75 0 0 1 3000 697.50A75 75 0 0 1 3150 697.50L-150 697.50" transform="matrix(1,0,0,1,71.61235046386719,0)" style="fill:rgb(7, 185, 190);transform:matrix(1, 0, 0, 1, 71.6124, 0);;animation:none"></path></g>
<g transform="matrix(1,0,0,1,0,-4.049439430236816)" style="transform:matrix(1, 0, 0, 1, 0, -4.04944);;animation:none"><path fill="#07b6bb" d="M-75 727.50A75 75 0 0 1 75 727.50A75 75 0 0 1 225 727.50A75 75 0 0 1 375 727.50A75 75 0 0 1 525 727.50A75 75 0 0 1 675 727.50A75 75 0 0 1 825 727.50A75 75 0 0 1 975 727.50A75 75 0 0 1 1125 727.50A75 75 0 0 1 1275 727.50A75 75 0 0 1 1425 727.50A75 75 0 0 1 1575 727.50A75 75 0 0 1 1725 727.50A75 75 0 0 1 1875 727.50A75 75 0 0 1 2025 727.50A75 75 0 0 1 2175 727.50A75 75 0 0 1 2325 727.50A75 75 0 0 1 2475 727.50A75 75 0 0 1 2625 727.50A75 75 0 0 1 2775 727.50A75 75 0 0 1 2925 727.50A75 75 0 0 1 3075 727.50A75 75 0 0 1 3225 727.50L-75 727.50" transform="matrix(1,0,0,1,69.27872467041016,0)" style="fill:rgb(7, 182, 187);transform:matrix(1, 0, 0, 1, 69.2787, 0);;animation:none"></path></g>
<g transform="matrix(1,0,0,1,0,-2.3164820671081543)" style="transform:matrix(1, 0, 0, 1, 0, -2.31648);;animation:none"><path fill="#07b4b9" d="M-150 757.50A75 75 0 0 1 0 757.50A75 75 0 0 1 150 757.50A75 75 0 0 1 300 757.50A75 75 0 0 1 450 757.50A75 75 0 0 1 600 757.50A75 75 0 0 1 750 757.50A75 75 0 0 1 900 757.50A75 75 0 0 1 1050 757.50A75 75 0 0 1 1200 757.50A75 75 0 0 1 1350 757.50A75 75 0 0 1 1500 757.50A75 75 0 0 1 1650 757.50A75 75 0 0 1 1800 757.50A75 75 0 0 1 1950 757.50A75 75 0 0 1 2100 757.50A75 75 0 0 1 2250 757.50A75 75 0 0 1 2400 757.50A75 75 0 0 1 2550 757.50A75 75 0 0 1 2700 757.50A75 75 0 0 1 2850 757.50A75 75 0 0 1 3000 757.50A75 75 0 0 1 3150 757.50L-150 757.50" transform="matrix(1,0,0,1,66.49485778808594,0)" style="fill:rgb(7, 180, 185);transform:matrix(1, 0, 0, 1, 66.4949, 0);;animation:none"></path></g>
<g transform="matrix(1,0,0,1,0,-1.025805950164795)" style="transform:matrix(1, 0, 0, 1, 0, -1.02581);;animation:none"><path fill="#08b1b7" d="M-75 787.50A75 75 0 0 1 75 787.50A75 75 0 0 1 225 787.50A75 75 0 0 1 375 787.50A75 75 0 0 1 525 787.50A75 75 0 0 1 675 787.50A75 75 0 0 1 825 787.50A75 75 0 0 1 975 787.50A75 75 0 0 1 1125 787.50A75 75 0 0 1 1275 787.50A75 75 0 0 1 1425 787.50A75 75 0 0 1 1575 787.50A75 75 0 0 1 1725 787.50A75 75 0 0 1 1875 787.50A75 75 0 0 1 2025 787.50A75 75 0 0 1 2175 787.50A75 75 0 0 1 2325 787.50A75 75 0 0 1 2475 787.50A75 75 0 0 1 2625 787.50A75 75 0 0 1 2775 787.50A75 75 0 0 1 2925 787.50A75 75 0 0 1 3075 787.50A75 75 0 0 1 3225 787.50L-75 787.50" transform="matrix(1,0,0,1,63.33332061767578,0)" style="fill:rgb(8, 177, 183);transform:matrix(1, 0, 0, 1, 63.3333, 0);;animation:none"></path></g>
<g transform="matrix(1,0,0,1,0,-0.2975654602050781)" style="transform:matrix(1, 0, 0, 1, 0, -0.297565);;animation:none"><path fill="#08afb4" d="M-150 817.50A75 75 0 0 1 0 817.50A75 75 0 0 1 150 817.50A75 75 0 0 1 300 817.50A75 75 0 0 1 450 817.50A75 75 0 0 1 600 817.50A75 75 0 0 1 750 817.50A75 75 0 0 1 900 817.50A75 75 0 0 1 1050 817.50A75 75 0 0 1 1200 817.50A75 75 0 0 1 1350 817.50A75 75 0 0 1 1500 817.50A75 75 0 0 1 1650 817.50A75 75 0 0 1 1800 817.50A75 75 0 0 1 1950 817.50A75 75 0 0 1 2100 817.50A75 75 0 0 1 2250 817.50A75 75 0 0 1 2400 817.50A75 75 0 0 1 2550 817.50A75 75 0 0 1 2700 817.50A75 75 0 0 1 2850 817.50A75 75 0 0 1 3000 817.50A75 75 0 0 1 3150 817.50L-150 817.50" transform="matrix(1,0,0,1,59.858123779296875,0)" style="fill:rgb(8, 175, 180);transform:matrix(1, 0, 0, 1, 59.8581, 0);;animation:none"></path></g>
<g transform="matrix(1,0,0,1,0,-0.01658916473388672)" style="transform:matrix(1, 0, 0, 1, 0, -0.0165892);;animation:none"><path fill="#08acb2" d="M-75 847.50A75 75 0 0 1 75 847.50A75 75 0 0 1 225 847.50A75 75 0 0 1 375 847.50A75 75 0 0 1 525 847.50A75 75 0 0 1 675 847.50A75 75 0 0 1 825 847.50A75 75 0 0 1 975 847.50A75 75 0 0 1 1125 847.50A75 75 0 0 1 1275 847.50A75 75 0 0 1 1425 847.50A75 75 0 0 1 1575 847.50A75 75 0 0 1 1725 847.50A75 75 0 0 1 1875 847.50A75 75 0 0 1 2025 847.50A75 75 0 0 1 2175 847.50A75 75 0 0 1 2325 847.50A75 75 0 0 1 2475 847.50A75 75 0 0 1 2625 847.50A75 75 0 0 1 2775 847.50A75 75 0 0 1 2925 847.50A75 75 0 0 1 3075 847.50A75 75 0 0 1 3225 847.50L-75 847.50" transform="matrix(1,0,0,1,56.12689971923828,0)" style="fill:rgb(8, 172, 178);transform:matrix(1, 0, 0, 1, 56.1269, 0);;animation:none"></path></g>
<g transform="matrix(1,0,0,1,0,0.06886614859104156)" style="transform:matrix(1, 0, 0, 1, 0, 0.0688661);;animation:none"><path fill="#08aab0" d="M-150 877.50A75 75 0 0 1 0 877.50A75 75 0 0 1 150 877.50A75 75 0 0 1 300 877.50A75 75 0 0 1 450 877.50A75 75 0 0 1 600 877.50A75 75 0 0 1 750 877.50A75 75 0 0 1 900 877.50A75 75 0 0 1 1050 877.50A75 75 0 0 1 1200 877.50A75 75 0 0 1 1350 877.50A75 75 0 0 1 1500 877.50A75 75 0 0 1 1650 877.50A75 75 0 0 1 1800 877.50A75 75 0 0 1 1950 877.50A75 75 0 0 1 2100 877.50A75 75 0 0 1 2250 877.50A75 75 0 0 1 2400 877.50A75 75 0 0 1 2550 877.50A75 75 0 0 1 2700 877.50A75 75 0 0 1 2850 877.50A75 75 0 0 1 3000 877.50A75 75 0 0 1 3150 877.50L-150 877.50" transform="matrix(1,0,0,1,52.19212341308594,0)" style="fill:rgb(8, 170, 176);transform:matrix(1, 0, 0, 1, 52.1921, 0);;animation:none"></path></g>
<g transform="matrix(1,0,0,1,0,0.48370739817619324)" style="transform:matrix(1, 0, 0, 1, 0, 0.483707);;animation:none"><path fill="#08a7ad" d="M-75 907.50A75 75 0 0 1 75 907.50A75 75 0 0 1 225 907.50A75 75 0 0 1 375 907.50A75 75 0 0 1 525 907.50A75 75 0 0 1 675 907.50A75 75 0 0 1 825 907.50A75 75 0 0 1 975 907.50A75 75 0 0 1 1125 907.50A75 75 0 0 1 1275 907.50A75 75 0 0 1 1425 907.50A75 75 0 0 1 1575 907.50A75 75 0 0 1 1725 907.50A75 75 0 0 1 1875 907.50A75 75 0 0 1 2025 907.50A75 75 0 0 1 2175 907.50A75 75 0 0 1 2325 907.50A75 75 0 0 1 2475 907.50A75 75 0 0 1 2625 907.50A75 75 0 0 1 2775 907.50A75 75 0 0 1 2925 907.50A75 75 0 0 1 3075 907.50A75 75 0 0 1 3225 907.50L-75 907.50" transform="matrix(1,0,0,1,48.102691650390625,0)" style="fill:rgb(8, 167, 173);transform:matrix(1, 0, 0, 1, 48.1027, 0);;animation:none"></path></g>
<g transform="matrix(1,0,0,1,0,1.3910059928894043)" style="transform:matrix(1, 0, 0, 1, 0, 1.39101);;animation:none"><path fill="#09a5ab" d="M-150 937.50A75 75 0 0 1 0 937.50A75 75 0 0 1 150 937.50A75 75 0 0 1 300 937.50A75 75 0 0 1 450 937.50A75 75 0 0 1 600 937.50A75 75 0 0 1 750 937.50A75 75 0 0 1 900 937.50A75 75 0 0 1 1050 937.50A75 75 0 0 1 1200 937.50A75 75 0 0 1 1350 937.50A75 75 0 0 1 1500 937.50A75 75 0 0 1 1650 937.50A75 75 0 0 1 1800 937.50A75 75 0 0 1 1950 937.50A75 75 0 0 1 2100 937.50A75 75 0 0 1 2250 937.50A75 75 0 0 1 2400 937.50A75 75 0 0 1 2550 937.50A75 75 0 0 1 2700 937.50A75 75 0 0 1 2850 937.50A75 75 0 0 1 3000 937.50A75 75 0 0 1 3150 937.50L-150 937.50" transform="matrix(1,0,0,1,43.90456771850586,0)" style="fill:rgb(9, 165, 171);transform:matrix(1, 0, 0, 1, 43.9046, 0);;animation:none"></path></g>
<g transform="matrix(1,0,0,1,0,2.864985942840576)" style="transform:matrix(1, 0, 0, 1, 0, 2.86499);;animation:none"><path fill="#09a2a9" d="M-75 967.50A75 75 0 0 1 75 967.50A75 75 0 0 1 225 967.50A75 75 0 0 1 375 967.50A75 75 0 0 1 525 967.50A75 75 0 0 1 675 967.50A75 75 0 0 1 825 967.50A75 75 0 0 1 975 967.50A75 75 0 0 1 1125 967.50A75 75 0 0 1 1275 967.50A75 75 0 0 1 1425 967.50A75 75 0 0 1 1575 967.50A75 75 0 0 1 1725 967.50A75 75 0 0 1 1875 967.50A75 75 0 0 1 2025 967.50A75 75 0 0 1 2175 967.50A75 75 0 0 1 2325 967.50A75 75 0 0 1 2475 967.50A75 75 0 0 1 2625 967.50A75 75 0 0 1 2775 967.50A75 75 0 0 1 2925 967.50A75 75 0 0 1 3075 967.50A75 75 0 0 1 3225 967.50L-75 967.50" transform="matrix(1,0,0,1,39.6419792175293,0)" style="fill:rgb(9, 162, 169);transform:matrix(1, 0, 0, 1, 39.642, 0);;animation:none"></path></g>
<g transform="matrix(1,0,0,1,0,4.635014057159424)" style="transform:matrix(1, 0, 0, 1, 0, 4.63501);;animation:none"><path fill="#09a0a6" d="M-150 997.50A75 75 0 0 1 0 997.50A75 75 0 0 1 150 997.50A75 75 0 0 1 300 997.50A75 75 0 0 1 450 997.50A75 75 0 0 1 600 997.50A75 75 0 0 1 750 997.50A75 75 0 0 1 900 997.50A75 75 0 0 1 1050 997.50A75 75 0 0 1 1200 997.50A75 75 0 0 1 1350 997.50A75 75 0 0 1 1500 997.50A75 75 0 0 1 1650 997.50A75 75 0 0 1 1800 997.50A75 75 0 0 1 1950 997.50A75 75 0 0 1 2100 997.50A75 75 0 0 1 2250 997.50A75 75 0 0 1 2400 997.50A75 75 0 0 1 2550 997.50A75 75 0 0 1 2700 997.50A75 75 0 0 1 2850 997.50A75 75 0 0 1 3000 997.50A75 75 0 0 1 3150 997.50L-150 997.50" transform="matrix(1,0,0,1,35.35807418823242,0)" style="fill:rgb(9, 160, 166);transform:matrix(1, 0, 0, 1, 35.3581, 0);;animation:none"></path></g>
<g transform="matrix(1,0,0,1,0,6.108994007110596)" style="transform:matrix(1, 0, 0, 1, 0, 6.10899);;animation:none"><path fill="#099da4" d="M-75 1027.50A75 75 0 0 1 75 1027.50A75 75 0 0 1 225 1027.50A75 75 0 0 1 375 1027.50A75 75 0 0 1 525 1027.50A75 75 0 0 1 675 1027.50A75 75 0 0 1 825 1027.50A75 75 0 0 1 975 1027.50A75 75 0 0 1 1125 1027.50A75 75 0 0 1 1275 1027.50A75 75 0 0 1 1425 1027.50A75 75 0 0 1 1575 1027.50A75 75 0 0 1 1725 1027.50A75 75 0 0 1 1875 1027.50A75 75 0 0 1 2025 1027.50A75 75 0 0 1 2175 1027.50A75 75 0 0 1 2325 1027.50A75 75 0 0 1 2475 1027.50A75 75 0 0 1 2625 1027.50A75 75 0 0 1 2775 1027.50A75 75 0 0 1 2925 1027.50A75 75 0 0 1 3075 1027.50A75 75 0 0 1 3225 1027.50L-75 1027.50" transform="matrix(1,0,0,1,31.09548568725586,0)" style="fill:rgb(9, 157, 164);transform:matrix(1, 0, 0, 1, 31.0955, 0);;animation:none"></path></g>
<g transform="matrix(1,0,0,1,0,7.0162835121154785)" style="transform:matrix(1, 0, 0, 1, 0, 7.01628);;animation:none"><path fill="#0a9ba2" d="M-150 1057.50A75 75 0 0 1 0 1057.50A75 75 0 0 1 150 1057.50A75 75 0 0 1 300 1057.50A75 75 0 0 1 450 1057.50A75 75 0 0 1 600 1057.50A75 75 0 0 1 750 1057.50A75 75 0 0 1 900 1057.50A75 75 0 0 1 1050 1057.50A75 75 0 0 1 1200 1057.50A75 75 0 0 1 1350 1057.50A75 75 0 0 1 1500 1057.50A75 75 0 0 1 1650 1057.50A75 75 0 0 1 1800 1057.50A75 75 0 0 1 1950 1057.50A75 75 0 0 1 2100 1057.50A75 75 0 0 1 2250 1057.50A75 75 0 0 1 2400 1057.50A75 75 0 0 1 2550 1057.50A75 75 0 0 1 2700 1057.50A75 75 0 0 1 2850 1057.50A75 75 0 0 1 3000 1057.50A75 75 0 0 1 3150 1057.50L-150 1057.50" transform="matrix(1,0,0,1,26.89740753173828,0)" style="fill:rgb(10, 155, 162);transform:matrix(1, 0, 0, 1, 26.8974, 0);;animation:none"></path></g>
<g transform="matrix(1,0,0,1,0,7.43113374710083)" style="transform:matrix(1, 0, 0, 1, 0, 7.43113);;animation:none"><path fill="#0a989f" d="M-75 1087.50A75 75 0 0 1 75 1087.50A75 75 0 0 1 225 1087.50A75 75 0 0 1 375 1087.50A75 75 0 0 1 525 1087.50A75 75 0 0 1 675 1087.50A75 75 0 0 1 825 1087.50A75 75 0 0 1 975 1087.50A75 75 0 0 1 1125 1087.50A75 75 0 0 1 1275 1087.50A75 75 0 0 1 1425 1087.50A75 75 0 0 1 1575 1087.50A75 75 0 0 1 1725 1087.50A75 75 0 0 1 1875 1087.50A75 75 0 0 1 2025 1087.50A75 75 0 0 1 2175 1087.50A75 75 0 0 1 2325 1087.50A75 75 0 0 1 2475 1087.50A75 75 0 0 1 2625 1087.50A75 75 0 0 1 2775 1087.50A75 75 0 0 1 2925 1087.50A75 75 0 0 1 3075 1087.50A75 75 0 0 1 3225 1087.50L-75 1087.50" transform="matrix(1,0,0,1,22.807926177978516,0)" style="fill:rgb(10, 152, 159);transform:matrix(1, 0, 0, 1, 22.8079, 0);;animation:none"></path></g>
<g transform="matrix(1,0,0,1,0,7.4834113121032715)" style="transform:matrix(1, 0, 0, 1, 0, 7.48341);;animation:none"><path fill="#0a969d" d="M-150 1117.50A75 75 0 0 1 0 1117.50A75 75 0 0 1 150 1117.50A75 75 0 0 1 300 1117.50A75 75 0 0 1 450 1117.50A75 75 0 0 1 600 1117.50A75 75 0 0 1 750 1117.50A75 75 0 0 1 900 1117.50A75 75 0 0 1 1050 1117.50A75 75 0 0 1 1200 1117.50A75 75 0 0 1 1350 1117.50A75 75 0 0 1 1500 1117.50A75 75 0 0 1 1650 1117.50A75 75 0 0 1 1800 1117.50A75 75 0 0 1 1950 1117.50A75 75 0 0 1 2100 1117.50A75 75 0 0 1 2250 1117.50A75 75 0 0 1 2400 1117.50A75 75 0 0 1 2550 1117.50A75 75 0 0 1 2700 1117.50A75 75 0 0 1 2850 1117.50A75 75 0 0 1 3000 1117.50A75 75 0 0 1 3150 1117.50L-150 1117.50" transform="matrix(1,0,0,1,18.87313461303711,0)" style="fill:rgb(10, 150, 157);transform:matrix(1, 0, 0, 1, 18.8731, 0);;animation:none"></path></g>
<g transform="matrix(1,0,0,1,0,7.202434539794922)" style="transform:matrix(1, 0, 0, 1, 0, 7.20243);;animation:none"><path fill="#0a939b" d="M-75 1147.50A75 75 0 0 1 75 1147.50A75 75 0 0 1 225 1147.50A75 75 0 0 1 375 1147.50A75 75 0 0 1 525 1147.50A75 75 0 0 1 675 1147.50A75 75 0 0 1 825 1147.50A75 75 0 0 1 975 1147.50A75 75 0 0 1 1125 1147.50A75 75 0 0 1 1275 1147.50A75 75 0 0 1 1425 1147.50A75 75 0 0 1 1575 1147.50A75 75 0 0 1 1725 1147.50A75 75 0 0 1 1875 1147.50A75 75 0 0 1 2025 1147.50A75 75 0 0 1 2175 1147.50A75 75 0 0 1 2325 1147.50A75 75 0 0 1 2475 1147.50A75 75 0 0 1 2625 1147.50A75 75 0 0 1 2775 1147.50A75 75 0 0 1 2925 1147.50A75 75 0 0 1 3075 1147.50A75 75 0 0 1 3225 1147.50L-75 1147.50" transform="matrix(1,0,0,1,15.141918182373047,0)" style="fill:rgb(10, 147, 155);transform:matrix(1, 0, 0, 1, 15.1419, 0);;animation:none"></path></g>
<g transform="matrix(1,0,0,1,0,6.4741950035095215)" style="transform:matrix(1, 0, 0, 1, 0, 6.4742);;animation:none"><path fill="#0b9198" d="M-150 1177.50A75 75 0 0 1 0 1177.50A75 75 0 0 1 150 1177.50A75 75 0 0 1 300 1177.50A75 75 0 0 1 450 1177.50A75 75 0 0 1 600 1177.50A75 75 0 0 1 750 1177.50A75 75 0 0 1 900 1177.50A75 75 0 0 1 1050 1177.50A75 75 0 0 1 1200 1177.50A75 75 0 0 1 1350 1177.50A75 75 0 0 1 1500 1177.50A75 75 0 0 1 1650 1177.50A75 75 0 0 1 1800 1177.50A75 75 0 0 1 1950 1177.50A75 75 0 0 1 2100 1177.50A75 75 0 0 1 2250 1177.50A75 75 0 0 1 2400 1177.50A75 75 0 0 1 2550 1177.50A75 75 0 0 1 2700 1177.50A75 75 0 0 1 2850 1177.50A75 75 0 0 1 3000 1177.50A75 75 0 0 1 3150 1177.50L-150 1177.50" transform="matrix(1,0,0,1,11.666706085205078,0)" style="fill:rgb(11, 145, 152);transform:matrix(1, 0, 0, 1, 11.6667, 0);;animation:none"></path></g>
<g transform="matrix(1,0,0,1,0,5.1835174560546875)" style="transform:matrix(1, 0, 0, 1, 0, 5.18352);;animation:none"><path fill="#0b8e96" d="M-75 1207.50A75 75 0 0 1 75 1207.50A75 75 0 0 1 225 1207.50A75 75 0 0 1 375 1207.50A75 75 0 0 1 525 1207.50A75 75 0 0 1 675 1207.50A75 75 0 0 1 825 1207.50A75 75 0 0 1 975 1207.50A75 75 0 0 1 1125 1207.50A75 75 0 0 1 1275 1207.50A75 75 0 0 1 1425 1207.50A75 75 0 0 1 1575 1207.50A75 75 0 0 1 1725 1207.50A75 75 0 0 1 1875 1207.50A75 75 0 0 1 2025 1207.50A75 75 0 0 1 2175 1207.50A75 75 0 0 1 2325 1207.50A75 75 0 0 1 2475 1207.50A75 75 0 0 1 2625 1207.50A75 75 0 0 1 2775 1207.50A75 75 0 0 1 2925 1207.50A75 75 0 0 1 3075 1207.50A75 75 0 0 1 3225 1207.50L-75 1207.50" transform="matrix(1,0,0,1,8.505180358886719,0)" style="fill:rgb(11, 142, 150);transform:matrix(1, 0, 0, 1, 8.50518, 0);;animation:none"></path></g>
<g transform="matrix(1,0,0,1,0,3.4505605697631836)" style="transform:matrix(1, 0, 0, 1, 0, 3.45056);;animation:none"><path fill="#0b8c94" d="M-150 1237.50A75 75 0 0 1 0 1237.50A75 75 0 0 1 150 1237.50A75 75 0 0 1 300 1237.50A75 75 0 0 1 450 1237.50A75 75 0 0 1 600 1237.50A75 75 0 0 1 750 1237.50A75 75 0 0 1 900 1237.50A75 75 0 0 1 1050 1237.50A75 75 0 0 1 1200 1237.50A75 75 0 0 1 1350 1237.50A75 75 0 0 1 1500 1237.50A75 75 0 0 1 1650 1237.50A75 75 0 0 1 1800 1237.50A75 75 0 0 1 1950 1237.50A75 75 0 0 1 2100 1237.50A75 75 0 0 1 2250 1237.50A75 75 0 0 1 2400 1237.50A75 75 0 0 1 2550 1237.50A75 75 0 0 1 2700 1237.50A75 75 0 0 1 2850 1237.50A75 75 0 0 1 3000 1237.50A75 75 0 0 1 3150 1237.50L-150 1237.50" transform="matrix(1,0,0,1,5.7212982177734375,0)" style="fill:rgb(11, 140, 148);transform:matrix(1, 0, 0, 1, 5.7213, 0);;animation:none"></path></g>
<g transform="matrix(1,0,0,1,0,1.8221158981323242)" style="transform:matrix(1, 0, 0, 1, 0, 1.82212);;animation:none"><path fill="#0b8991" d="M-75 1267.50A75 75 0 0 1 75 1267.50A75 75 0 0 1 225 1267.50A75 75 0 0 1 375 1267.50A75 75 0 0 1 525 1267.50A75 75 0 0 1 675 1267.50A75 75 0 0 1 825 1267.50A75 75 0 0 1 975 1267.50A75 75 0 0 1 1125 1267.50A75 75 0 0 1 1275 1267.50A75 75 0 0 1 1425 1267.50A75 75 0 0 1 1575 1267.50A75 75 0 0 1 1725 1267.50A75 75 0 0 1 1875 1267.50A75 75 0 0 1 2025 1267.50A75 75 0 0 1 2175 1267.50A75 75 0 0 1 2325 1267.50A75 75 0 0 1 2475 1267.50A75 75 0 0 1 2625 1267.50A75 75 0 0 1 2775 1267.50A75 75 0 0 1 2925 1267.50A75 75 0 0 1 3075 1267.50A75 75 0 0 1 3225 1267.50L-75 1267.50" transform="matrix(1,0,0,1,3.3876724243164062,0)" style="fill:rgb(11, 137, 145);transform:matrix(1, 0, 0, 1, 3.38767, 0);;animation:none"></path></g>
<g transform="matrix(1,0,0,1,0,0.7247428894042969)" style="transform:matrix(1, 0, 0, 1, 0, 0.724743);;animation:none"><path fill="#0c878f" d="M-150 1297.50A75 75 0 0 1 0 1297.50A75 75 0 0 1 150 1297.50A75 75 0 0 1 300 1297.50A75 75 0 0 1 450 1297.50A75 75 0 0 1 600 1297.50A75 75 0 0 1 750 1297.50A75 75 0 0 1 900 1297.50A75 75 0 0 1 1050 1297.50A75 75 0 0 1 1200 1297.50A75 75 0 0 1 1350 1297.50A75 75 0 0 1 1500 1297.50A75 75 0 0 1 1650 1297.50A75 75 0 0 1 1800 1297.50A75 75 0 0 1 1950 1297.50A75 75 0 0 1 2100 1297.50A75 75 0 0 1 2250 1297.50A75 75 0 0 1 2400 1297.50A75 75 0 0 1 2550 1297.50A75 75 0 0 1 2700 1297.50A75 75 0 0 1 2850 1297.50A75 75 0 0 1 3000 1297.50A75 75 0 0 1 3150 1297.50L-150 1297.50" transform="matrix(1,0,0,1,1.587738037109375,0)" style="fill:rgb(12, 135, 143);transform:matrix(1, 0, 0, 1, 1.58774, 0);;animation:none"></path></g>
<g transform="matrix(1,0,0,1,0,0.16097497940063477)" style="transform:matrix(1, 0, 0, 1, 0, 0.160975);;animation:none"><path fill="#0c848d" d="M-75 1327.50A75 75 0 0 1 75 1327.50A75 75 0 0 1 225 1327.50A75 75 0 0 1 375 1327.50A75 75 0 0 1 525 1327.50A75 75 0 0 1 675 1327.50A75 75 0 0 1 825 1327.50A75 75 0 0 1 975 1327.50A75 75 0 0 1 1125 1327.50A75 75 0 0 1 1275 1327.50A75 75 0 0 1 1425 1327.50A75 75 0 0 1 1575 1327.50A75 75 0 0 1 1725 1327.50A75 75 0 0 1 1875 1327.50A75 75 0 0 1 2025 1327.50A75 75 0 0 1 2175 1327.50A75 75 0 0 1 2325 1327.50A75 75 0 0 1 2475 1327.50A75 75 0 0 1 2625 1327.50A75 75 0 0 1 2775 1327.50A75 75 0 0 1 2925 1327.50A75 75 0 0 1 3075 1327.50A75 75 0 0 1 3225 1327.50L-75 1327.50" transform="matrix(1,0,0,1,0.4194793701171875,0)" style="fill:rgb(12, 132, 141);transform:matrix(1, 0, 0, 1, 0.419479, 0);;animation:none"></path></g>
<g transform="matrix(1,0,0,1,0,0)" style="transform:matrix(1, 0, 0, 1, 0, 0);;animation:none"><path fill="#0c828a" d="M-150 1357.50A75 75 0 0 1 0 1357.50A75 75 0 0 1 150 1357.50A75 75 0 0 1 300 1357.50A75 75 0 0 1 450 1357.50A75 75 0 0 1 600 1357.50A75 75 0 0 1 750 1357.50A75 75 0 0 1 900 1357.50A75 75 0 0 1 1050 1357.50A75 75 0 0 1 1200 1357.50A75 75 0 0 1 1350 1357.50A75 75 0 0 1 1500 1357.50A75 75 0 0 1 1650 1357.50A75 75 0 0 1 1800 1357.50A75 75 0 0 1 1950 1357.50A75 75 0 0 1 2100 1357.50A75 75 0 0 1 2250 1357.50A75 75 0 0 1 2400 1357.50A75 75 0 0 1 2550 1357.50A75 75 0 0 1 2700 1357.50A75 75 0 0 1 2850 1357.50A75 75 0 0 1 3000 1357.50A75 75 0 0 1 3150 1357.50L-150 1357.50" transform="matrix(1,0,0,1,0,0)" style="fill:rgb(12, 130, 138);transform:matrix(1, 0, 0, 1, 0, 0);;animation:none"></path></g>
<g transform="matrix(1,0,0,1,0,-0.16098028421401978)" style="transform:matrix(1, 0, 0, 1, 0, -0.16098);;animation:none"><path fill="#0c7f88" d="M-75 1387.50A75 75 0 0 1 75 1387.50A75 75 0 0 1 225 1387.50A75 75 0 0 1 375 1387.50A75 75 0 0 1 525 1387.50A75 75 0 0 1 675 1387.50A75 75 0 0 1 825 1387.50A75 75 0 0 1 975 1387.50A75 75 0 0 1 1125 1387.50A75 75 0 0 1 1275 1387.50A75 75 0 0 1 1425 1387.50A75 75 0 0 1 1575 1387.50A75 75 0 0 1 1725 1387.50A75 75 0 0 1 1875 1387.50A75 75 0 0 1 2025 1387.50A75 75 0 0 1 2175 1387.50A75 75 0 0 1 2325 1387.50A75 75 0 0 1 2475 1387.50A75 75 0 0 1 2625 1387.50A75 75 0 0 1 2775 1387.50A75 75 0 0 1 2925 1387.50A75 75 0 0 1 3075 1387.50A75 75 0 0 1 3225 1387.50L-75 1387.50" transform="matrix(1,0,0,1,-0.41947755217552185,0)" style="fill:rgb(12, 127, 136);transform:matrix(1, 0, 0, 1, -0.419478, 0);;animation:none"></path></g>
<g transform="matrix(1,0,0,1,0,-0.7247427701950073)" style="transform:matrix(1, 0, 0, 1, 0, -0.724743);;animation:none"><path fill="#0d7d86" d="M-150 1417.50A75 75 0 0 1 0 1417.50A75 75 0 0 1 150 1417.50A75 75 0 0 1 300 1417.50A75 75 0 0 1 450 1417.50A75 75 0 0 1 600 1417.50A75 75 0 0 1 750 1417.50A75 75 0 0 1 900 1417.50A75 75 0 0 1 1050 1417.50A75 75 0 0 1 1200 1417.50A75 75 0 0 1 1350 1417.50A75 75 0 0 1 1500 1417.50A75 75 0 0 1 1650 1417.50A75 75 0 0 1 1800 1417.50A75 75 0 0 1 1950 1417.50A75 75 0 0 1 2100 1417.50A75 75 0 0 1 2250 1417.50A75 75 0 0 1 2400 1417.50A75 75 0 0 1 2550 1417.50A75 75 0 0 1 2700 1417.50A75 75 0 0 1 2850 1417.50A75 75 0 0 1 3000 1417.50A75 75 0 0 1 3150 1417.50L-150 1417.50" transform="matrix(1,0,0,1,-1.5877182483673096,0)" style="fill:rgb(13, 125, 134);transform:matrix(1, 0, 0, 1, -1.58772, 0);;animation:none"></path></g>
<g transform="matrix(1,0,0,1,0,-1.8221172094345093)" style="transform:matrix(1, 0, 0, 1, 0, -1.82212);;animation:none"><path fill="#0d7a83" d="M-75 1447.50A75 75 0 0 1 75 1447.50A75 75 0 0 1 225 1447.50A75 75 0 0 1 375 1447.50A75 75 0 0 1 525 1447.50A75 75 0 0 1 675 1447.50A75 75 0 0 1 825 1447.50A75 75 0 0 1 975 1447.50A75 75 0 0 1 1125 1447.50A75 75 0 0 1 1275 1447.50A75 75 0 0 1 1425 1447.50A75 75 0 0 1 1575 1447.50A75 75 0 0 1 1725 1447.50A75 75 0 0 1 1875 1447.50A75 75 0 0 1 2025 1447.50A75 75 0 0 1 2175 1447.50A75 75 0 0 1 2325 1447.50A75 75 0 0 1 2475 1447.50A75 75 0 0 1 2625 1447.50A75 75 0 0 1 2775 1447.50A75 75 0 0 1 2925 1447.50A75 75 0 0 1 3075 1447.50A75 75 0 0 1 3225 1447.50L-75 1447.50" transform="matrix(1,0,0,1,-3.387641429901123,0)" style="fill:rgb(13, 122, 131);transform:matrix(1, 0, 0, 1, -3.38764, 0);;animation:none"></path></g>
<g transform="matrix(1,0,0,1,0,-3.4505603313446045)" style="transform:matrix(1, 0, 0, 1, 0, -3.45056);;animation:none"><path fill="#0d7881" d="M-150 1477.50A75 75 0 0 1 0 1477.50A75 75 0 0 1 150 1477.50A75 75 0 0 1 300 1477.50A75 75 0 0 1 450 1477.50A75 75 0 0 1 600 1477.50A75 75 0 0 1 750 1477.50A75 75 0 0 1 900 1477.50A75 75 0 0 1 1050 1477.50A75 75 0 0 1 1200 1477.50A75 75 0 0 1 1350 1477.50A75 75 0 0 1 1500 1477.50A75 75 0 0 1 1650 1477.50A75 75 0 0 1 1800 1477.50A75 75 0 0 1 1950 1477.50A75 75 0 0 1 2100 1477.50A75 75 0 0 1 2250 1477.50A75 75 0 0 1 2400 1477.50A75 75 0 0 1 2550 1477.50A75 75 0 0 1 2700 1477.50A75 75 0 0 1 2850 1477.50A75 75 0 0 1 3000 1477.50A75 75 0 0 1 3150 1477.50L-150 1477.50" transform="matrix(1,0,0,1,-5.721266746520996,0)" style="fill:rgb(13, 120, 129);transform:matrix(1, 0, 0, 1, -5.72127, 0);;animation:none"></path></g>
<g transform="matrix(1,0,0,1,0,-5.183517932891846)" style="transform:matrix(1, 0, 0, 1, 0, -5.18352);;animation:none"><path fill="#0d757f" d="M-75 1507.50A75 75 0 0 1 75 1507.50A75 75 0 0 1 225 1507.50A75 75 0 0 1 375 1507.50A75 75 0 0 1 525 1507.50A75 75 0 0 1 675 1507.50A75 75 0 0 1 825 1507.50A75 75 0 0 1 975 1507.50A75 75 0 0 1 1125 1507.50A75 75 0 0 1 1275 1507.50A75 75 0 0 1 1425 1507.50A75 75 0 0 1 1575 1507.50A75 75 0 0 1 1725 1507.50A75 75 0 0 1 1875 1507.50A75 75 0 0 1 2025 1507.50A75 75 0 0 1 2175 1507.50A75 75 0 0 1 2325 1507.50A75 75 0 0 1 2475 1507.50A75 75 0 0 1 2625 1507.50A75 75 0 0 1 2775 1507.50A75 75 0 0 1 2925 1507.50A75 75 0 0 1 3075 1507.50A75 75 0 0 1 3225 1507.50L-75 1507.50" transform="matrix(1,0,0,1,-8.505134582519531,0)" style="fill:rgb(13, 117, 127);transform:matrix(1, 0, 0, 1, -8.50513, 0);;animation:none"></path></g>
<g transform="matrix(1,0,0,1,0,-6.474207878112793)" style="transform:matrix(1, 0, 0, 1, 0, -6.47421);;animation:none"><path fill="#0e737c" d="M-150 1537.50A75 75 0 0 1 0 1537.50A75 75 0 0 1 150 1537.50A75 75 0 0 1 300 1537.50A75 75 0 0 1 450 1537.50A75 75 0 0 1 600 1537.50A75 75 0 0 1 750 1537.50A75 75 0 0 1 900 1537.50A75 75 0 0 1 1050 1537.50A75 75 0 0 1 1200 1537.50A75 75 0 0 1 1350 1537.50A75 75 0 0 1 1500 1537.50A75 75 0 0 1 1650 1537.50A75 75 0 0 1 1800 1537.50A75 75 0 0 1 1950 1537.50A75 75 0 0 1 2100 1537.50A75 75 0 0 1 2250 1537.50A75 75 0 0 1 2400 1537.50A75 75 0 0 1 2550 1537.50A75 75 0 0 1 2700 1537.50A75 75 0 0 1 2850 1537.50A75 75 0 0 1 3000 1537.50A75 75 0 0 1 3150 1537.50L-150 1537.50" transform="matrix(1,0,0,1,-11.666707038879395,0)" style="fill:rgb(14, 115, 124);transform:matrix(1, 0, 0, 1, -11.6667, 0);;animation:none"></path></g>
<g transform="matrix(1,0,0,1,0,-7.202434539794922)" style="transform:matrix(1, 0, 0, 1, 0, -7.20243);;animation:none"><path fill="#0e707a" d="M-75 1567.50A75 75 0 0 1 75 1567.50A75 75 0 0 1 225 1567.50A75 75 0 0 1 375 1567.50A75 75 0 0 1 525 1567.50A75 75 0 0 1 675 1567.50A75 75 0 0 1 825 1567.50A75 75 0 0 1 975 1567.50A75 75 0 0 1 1125 1567.50A75 75 0 0 1 1275 1567.50A75 75 0 0 1 1425 1567.50A75 75 0 0 1 1575 1567.50A75 75 0 0 1 1725 1567.50A75 75 0 0 1 1875 1567.50A75 75 0 0 1 2025 1567.50A75 75 0 0 1 2175 1567.50A75 75 0 0 1 2325 1567.50A75 75 0 0 1 2475 1567.50A75 75 0 0 1 2625 1567.50A75 75 0 0 1 2775 1567.50A75 75 0 0 1 2925 1567.50A75 75 0 0 1 3075 1567.50A75 75 0 0 1 3225 1567.50L-75 1567.50" transform="matrix(1,0,0,1,-15.141864776611328,0)" style="fill:rgb(14, 112, 122);transform:matrix(1, 0, 0, 1, -15.1419, 0);;animation:none"></path></g>
<g transform="matrix(1,0,0,1,0,-7.483412742614746)" style="transform:matrix(1, 0, 0, 1, 0, -7.48341);;animation:none"><path fill="#0e6e78" d="M-150 1597.50A75 75 0 0 1 0 1597.50A75 75 0 0 1 150 1597.50A75 75 0 0 1 300 1597.50A75 75 0 0 1 450 1597.50A75 75 0 0 1 600 1597.50A75 75 0 0 1 750 1597.50A75 75 0 0 1 900 1597.50A75 75 0 0 1 1050 1597.50A75 75 0 0 1 1200 1597.50A75 75 0 0 1 1350 1597.50A75 75 0 0 1 1500 1597.50A75 75 0 0 1 1650 1597.50A75 75 0 0 1 1800 1597.50A75 75 0 0 1 1950 1597.50A75 75 0 0 1 2100 1597.50A75 75 0 0 1 2250 1597.50A75 75 0 0 1 2400 1597.50A75 75 0 0 1 2550 1597.50A75 75 0 0 1 2700 1597.50A75 75 0 0 1 2850 1597.50A75 75 0 0 1 3000 1597.50A75 75 0 0 1 3150 1597.50L-150 1597.50" transform="matrix(1,0,0,1,-18.873136520385742,0)" style="fill:rgb(14, 110, 120);transform:matrix(1, 0, 0, 1, -18.8731, 0);;animation:none"></path></g>
<g transform="matrix(1,0,0,1,0,-7.43113374710083)" style="transform:matrix(1, 0, 0, 1, 0, -7.43113);;animation:none"><path fill="#0e6b75" d="M-75 1627.50A75 75 0 0 1 75 1627.50A75 75 0 0 1 225 1627.50A75 75 0 0 1 375 1627.50A75 75 0 0 1 525 1627.50A75 75 0 0 1 675 1627.50A75 75 0 0 1 825 1627.50A75 75 0 0 1 975 1627.50A75 75 0 0 1 1125 1627.50A75 75 0 0 1 1275 1627.50A75 75 0 0 1 1425 1627.50A75 75 0 0 1 1575 1627.50A75 75 0 0 1 1725 1627.50A75 75 0 0 1 1875 1627.50A75 75 0 0 1 2025 1627.50A75 75 0 0 1 2175 1627.50A75 75 0 0 1 2325 1627.50A75 75 0 0 1 2475 1627.50A75 75 0 0 1 2625 1627.50A75 75 0 0 1 2775 1627.50A75 75 0 0 1 2925 1627.50A75 75 0 0 1 3075 1627.50A75 75 0 0 1 3225 1627.50L-75 1627.50" transform="matrix(1,0,0,1,-22.8078670501709,0)" style="fill:rgb(14, 107, 117);transform:matrix(1, 0, 0, 1, -22.8079, 0);;animation:none"></path></g>
<g transform="matrix(1,0,0,1,0,-7.01628303527832)" style="transform:matrix(1, 0, 0, 1, 0, -7.01628);;animation:none"><path fill="#0f6973" d="M-150 1657.50A75 75 0 0 1 0 1657.50A75 75 0 0 1 150 1657.50A75 75 0 0 1 300 1657.50A75 75 0 0 1 450 1657.50A75 75 0 0 1 600 1657.50A75 75 0 0 1 750 1657.50A75 75 0 0 1 900 1657.50A75 75 0 0 1 1050 1657.50A75 75 0 0 1 1200 1657.50A75 75 0 0 1 1350 1657.50A75 75 0 0 1 1500 1657.50A75 75 0 0 1 1650 1657.50A75 75 0 0 1 1800 1657.50A75 75 0 0 1 1950 1657.50A75 75 0 0 1 2100 1657.50A75 75 0 0 1 2250 1657.50A75 75 0 0 1 2400 1657.50A75 75 0 0 1 2550 1657.50A75 75 0 0 1 2700 1657.50A75 75 0 0 1 2850 1657.50A75 75 0 0 1 3000 1657.50A75 75 0 0 1 3150 1657.50L-150 1657.50" transform="matrix(1,0,0,1,-26.8973445892334,0)" style="fill:rgb(15, 105, 115);transform:matrix(1, 0, 0, 1, -26.8973, 0);;animation:none"></path></g>
<g transform="matrix(1,0,0,1,0,-6.108994483947754)" style="transform:matrix(1, 0, 0, 1, 0, -6.10899);;animation:none"><path fill="#0f6671" d="M-75 1687.50A75 75 0 0 1 75 1687.50A75 75 0 0 1 225 1687.50A75 75 0 0 1 375 1687.50A75 75 0 0 1 525 1687.50A75 75 0 0 1 675 1687.50A75 75 0 0 1 825 1687.50A75 75 0 0 1 975 1687.50A75 75 0 0 1 1125 1687.50A75 75 0 0 1 1275 1687.50A75 75 0 0 1 1425 1687.50A75 75 0 0 1 1575 1687.50A75 75 0 0 1 1725 1687.50A75 75 0 0 1 1875 1687.50A75 75 0 0 1 2025 1687.50A75 75 0 0 1 2175 1687.50A75 75 0 0 1 2325 1687.50A75 75 0 0 1 2475 1687.50A75 75 0 0 1 2625 1687.50A75 75 0 0 1 2775 1687.50A75 75 0 0 1 2925 1687.50A75 75 0 0 1 3075 1687.50A75 75 0 0 1 3225 1687.50L-75 1687.50" transform="matrix(1,0,0,1,-31.09541893005371,0)" style="fill:rgb(15, 102, 113);transform:matrix(1, 0, 0, 1, -31.0954, 0);;animation:none"></path></g>
<g transform="matrix(1,0,0,1,0,-4.635013103485107)" style="transform:matrix(1, 0, 0, 1, 0, -4.63501);;animation:none"><path fill="#0f646e" d="M-150 1717.50A75 75 0 0 1 0 1717.50A75 75 0 0 1 150 1717.50A75 75 0 0 1 300 1717.50A75 75 0 0 1 450 1717.50A75 75 0 0 1 600 1717.50A75 75 0 0 1 750 1717.50A75 75 0 0 1 900 1717.50A75 75 0 0 1 1050 1717.50A75 75 0 0 1 1200 1717.50A75 75 0 0 1 1350 1717.50A75 75 0 0 1 1500 1717.50A75 75 0 0 1 1650 1717.50A75 75 0 0 1 1800 1717.50A75 75 0 0 1 1950 1717.50A75 75 0 0 1 2100 1717.50A75 75 0 0 1 2250 1717.50A75 75 0 0 1 2400 1717.50A75 75 0 0 1 2550 1717.50A75 75 0 0 1 2700 1717.50A75 75 0 0 1 2850 1717.50A75 75 0 0 1 3000 1717.50A75 75 0 0 1 3150 1717.50L-150 1717.50" transform="matrix(1,0,0,1,-35.358009338378906,0)" style="fill:rgb(15, 100, 110);transform:matrix(1, 0, 0, 1, -35.358, 0);;animation:none"></path></g>
<g transform="matrix(1,0,0,1,0,-2.8649868965148926)" style="transform:matrix(1, 0, 0, 1, 0, -2.86499);;animation:none"><path fill="#0f616c" d="M-75 1747.50A75 75 0 0 1 75 1747.50A75 75 0 0 1 225 1747.50A75 75 0 0 1 375 1747.50A75 75 0 0 1 525 1747.50A75 75 0 0 1 675 1747.50A75 75 0 0 1 825 1747.50A75 75 0 0 1 975 1747.50A75 75 0 0 1 1125 1747.50A75 75 0 0 1 1275 1747.50A75 75 0 0 1 1425 1747.50A75 75 0 0 1 1575 1747.50A75 75 0 0 1 1725 1747.50A75 75 0 0 1 1875 1747.50A75 75 0 0 1 2025 1747.50A75 75 0 0 1 2175 1747.50A75 75 0 0 1 2325 1747.50A75 75 0 0 1 2475 1747.50A75 75 0 0 1 2625 1747.50A75 75 0 0 1 2775 1747.50A75 75 0 0 1 2925 1747.50A75 75 0 0 1 3075 1747.50A75 75 0 0 1 3225 1747.50L-75 1747.50" transform="matrix(1,0,0,1,-39.64191436767578,0)" style="fill:rgb(15, 97, 108);transform:matrix(1, 0, 0, 1, -39.6419, 0);;animation:none"></path></g>
<g transform="matrix(1,0,0,1,0,-1.391005516052246)" style="transform:matrix(1, 0, 0, 1, 0, -1.39101);;animation:none"><path fill="#105f6a" d="M-150 1777.50A75 75 0 0 1 0 1777.50A75 75 0 0 1 150 1777.50A75 75 0 0 1 300 1777.50A75 75 0 0 1 450 1777.50A75 75 0 0 1 600 1777.50A75 75 0 0 1 750 1777.50A75 75 0 0 1 900 1777.50A75 75 0 0 1 1050 1777.50A75 75 0 0 1 1200 1777.50A75 75 0 0 1 1350 1777.50A75 75 0 0 1 1500 1777.50A75 75 0 0 1 1650 1777.50A75 75 0 0 1 1800 1777.50A75 75 0 0 1 1950 1777.50A75 75 0 0 1 2100 1777.50A75 75 0 0 1 2250 1777.50A75 75 0 0 1 2400 1777.50A75 75 0 0 1 2550 1777.50A75 75 0 0 1 2700 1777.50A75 75 0 0 1 2850 1777.50A75 75 0 0 1 3000 1777.50A75 75 0 0 1 3150 1777.50L-150 1777.50" transform="matrix(1,0,0,1,-43.90450668334961,0)" style="fill:rgb(16, 95, 106);transform:matrix(1, 0, 0, 1, -43.9045, 0);;animation:none"></path></g>
<g transform="matrix(1,0,0,1,0,-0.48370790481567383)" style="transform:matrix(1, 0, 0, 1, 0, -0.483708);;animation:none"><path fill="#105c67" d="M-75 1807.50A75 75 0 0 1 75 1807.50A75 75 0 0 1 225 1807.50A75 75 0 0 1 375 1807.50A75 75 0 0 1 525 1807.50A75 75 0 0 1 675 1807.50A75 75 0 0 1 825 1807.50A75 75 0 0 1 975 1807.50A75 75 0 0 1 1125 1807.50A75 75 0 0 1 1275 1807.50A75 75 0 0 1 1425 1807.50A75 75 0 0 1 1575 1807.50A75 75 0 0 1 1725 1807.50A75 75 0 0 1 1875 1807.50A75 75 0 0 1 2025 1807.50A75 75 0 0 1 2175 1807.50A75 75 0 0 1 2325 1807.50A75 75 0 0 1 2475 1807.50A75 75 0 0 1 2625 1807.50A75 75 0 0 1 2775 1807.50A75 75 0 0 1 2925 1807.50A75 75 0 0 1 3075 1807.50A75 75 0 0 1 3225 1807.50L-75 1807.50" transform="matrix(1,0,0,1,-48.10263442993164,0)" style="fill:rgb(16, 92, 103);transform:matrix(1, 0, 0, 1, -48.1026, 0);;animation:none"></path></g>
<g transform="matrix(1,0,0,1,0,-0.06886625289916992)" style="transform:matrix(1, 0, 0, 1, 0, -0.0688663);;animation:none"><path fill="#105a65" d="M-150 1837.50A75 75 0 0 1 0 1837.50A75 75 0 0 1 150 1837.50A75 75 0 0 1 300 1837.50A75 75 0 0 1 450 1837.50A75 75 0 0 1 600 1837.50A75 75 0 0 1 750 1837.50A75 75 0 0 1 900 1837.50A75 75 0 0 1 1050 1837.50A75 75 0 0 1 1200 1837.50A75 75 0 0 1 1350 1837.50A75 75 0 0 1 1500 1837.50A75 75 0 0 1 1650 1837.50A75 75 0 0 1 1800 1837.50A75 75 0 0 1 1950 1837.50A75 75 0 0 1 2100 1837.50A75 75 0 0 1 2250 1837.50A75 75 0 0 1 2400 1837.50A75 75 0 0 1 2550 1837.50A75 75 0 0 1 2700 1837.50A75 75 0 0 1 2850 1837.50A75 75 0 0 1 3000 1837.50A75 75 0 0 1 3150 1837.50L-150 1837.50" transform="matrix(1,0,0,1,-52.19206237792969,0)" style="fill:rgb(16, 90, 101);transform:matrix(1, 0, 0, 1, -52.1921, 0);;animation:none"></path></g>
<g transform="matrix(1,0,0,1,0,0.01658892259001732)" style="transform:matrix(1, 0, 0, 1, 0, 0.0165889);;animation:none"><path fill="#105763" d="M-75 1867.50A75 75 0 0 1 75 1867.50A75 75 0 0 1 225 1867.50A75 75 0 0 1 375 1867.50A75 75 0 0 1 525 1867.50A75 75 0 0 1 675 1867.50A75 75 0 0 1 825 1867.50A75 75 0 0 1 975 1867.50A75 75 0 0 1 1125 1867.50A75 75 0 0 1 1275 1867.50A75 75 0 0 1 1425 1867.50A75 75 0 0 1 1575 1867.50A75 75 0 0 1 1725 1867.50A75 75 0 0 1 1875 1867.50A75 75 0 0 1 2025 1867.50A75 75 0 0 1 2175 1867.50A75 75 0 0 1 2325 1867.50A75 75 0 0 1 2475 1867.50A75 75 0 0 1 2625 1867.50A75 75 0 0 1 2775 1867.50A75 75 0 0 1 2925 1867.50A75 75 0 0 1 3075 1867.50A75 75 0 0 1 3225 1867.50L-75 1867.50" transform="matrix(1,0,0,1,-56.1268424987793,0)" style="fill:rgb(16, 87, 99);transform:matrix(1, 0, 0, 1, -56.1268, 0);;animation:none"></path></g>
<g transform="matrix(1,0,0,1,0,0.29756563901901245)" style="transform:matrix(1, 0, 0, 1, 0, 0.297566);;animation:none"><path fill="#105560" d="M-150 1897.50A75 75 0 0 1 0 1897.50A75 75 0 0 1 150 1897.50A75 75 0 0 1 300 1897.50A75 75 0 0 1 450 1897.50A75 75 0 0 1 600 1897.50A75 75 0 0 1 750 1897.50A75 75 0 0 1 900 1897.50A75 75 0 0 1 1050 1897.50A75 75 0 0 1 1200 1897.50A75 75 0 0 1 1350 1897.50A75 75 0 0 1 1500 1897.50A75 75 0 0 1 1650 1897.50A75 75 0 0 1 1800 1897.50A75 75 0 0 1 1950 1897.50A75 75 0 0 1 2100 1897.50A75 75 0 0 1 2250 1897.50A75 75 0 0 1 2400 1897.50A75 75 0 0 1 2550 1897.50A75 75 0 0 1 2700 1897.50A75 75 0 0 1 2850 1897.50A75 75 0 0 1 3000 1897.50A75 75 0 0 1 3150 1897.50L-150 1897.50" transform="matrix(1,0,0,1,-59.858070373535156,0)" style="fill:rgb(16, 85, 96);transform:matrix(1, 0, 0, 1, -59.8581, 0);;animation:none"></path></g>
<g transform="matrix(1,0,0,1,0,1.025805115699768)" style="transform:matrix(1, 0, 0, 1, 0, 1.02581);;animation:none"><path fill="#11525e" d="M-75 1927.50A75 75 0 0 1 75 1927.50A75 75 0 0 1 225 1927.50A75 75 0 0 1 375 1927.50A75 75 0 0 1 525 1927.50A75 75 0 0 1 675 1927.50A75 75 0 0 1 825 1927.50A75 75 0 0 1 975 1927.50A75 75 0 0 1 1125 1927.50A75 75 0 0 1 1275 1927.50A75 75 0 0 1 1425 1927.50A75 75 0 0 1 1575 1927.50A75 75 0 0 1 1725 1927.50A75 75 0 0 1 1875 1927.50A75 75 0 0 1 2025 1927.50A75 75 0 0 1 2175 1927.50A75 75 0 0 1 2325 1927.50A75 75 0 0 1 2475 1927.50A75 75 0 0 1 2625 1927.50A75 75 0 0 1 2775 1927.50A75 75 0 0 1 2925 1927.50A75 75 0 0 1 3075 1927.50A75 75 0 0 1 3225 1927.50L-75 1927.50" transform="matrix(1,0,0,1,-63.33327102661133,0)" style="fill:rgb(17, 82, 94);transform:matrix(1, 0, 0, 1, -63.3333, 0);;animation:none"></path></g>
<g transform="matrix(1,0,0,1,0,2.3164827823638916)" style="transform:matrix(1, 0, 0, 1, 0, 2.31648);;animation:none"><path fill="#11505c" d="M-150 1957.50A75 75 0 0 1 0 1957.50A75 75 0 0 1 150 1957.50A75 75 0 0 1 300 1957.50A75 75 0 0 1 450 1957.50A75 75 0 0 1 600 1957.50A75 75 0 0 1 750 1957.50A75 75 0 0 1 900 1957.50A75 75 0 0 1 1050 1957.50A75 75 0 0 1 1200 1957.50A75 75 0 0 1 1350 1957.50A75 75 0 0 1 1500 1957.50A75 75 0 0 1 1650 1957.50A75 75 0 0 1 1800 1957.50A75 75 0 0 1 1950 1957.50A75 75 0 0 1 2100 1957.50A75 75 0 0 1 2250 1957.50A75 75 0 0 1 2400 1957.50A75 75 0 0 1 2550 1957.50A75 75 0 0 1 2700 1957.50A75 75 0 0 1 2850 1957.50A75 75 0 0 1 3000 1957.50A75 75 0 0 1 3150 1957.50L-150 1957.50" transform="matrix(1,0,0,1,-66.49481201171875,0)" style="fill:rgb(17, 80, 92);transform:matrix(1, 0, 0, 1, -66.4948, 0);;animation:none"></path></g>
<g transform="matrix(1,0,0,1,0,4.0494384765625)" style="transform:matrix(1, 0, 0, 1, 0, 4.04944);;animation:none"><path fill="#114d59" d="M-75 1987.50A75 75 0 0 1 75 1987.50A75 75 0 0 1 225 1987.50A75 75 0 0 1 375 1987.50A75 75 0 0 1 525 1987.50A75 75 0 0 1 675 1987.50A75 75 0 0 1 825 1987.50A75 75 0 0 1 975 1987.50A75 75 0 0 1 1125 1987.50A75 75 0 0 1 1275 1987.50A75 75 0 0 1 1425 1987.50A75 75 0 0 1 1575 1987.50A75 75 0 0 1 1725 1987.50A75 75 0 0 1 1875 1987.50A75 75 0 0 1 2025 1987.50A75 75 0 0 1 2175 1987.50A75 75 0 0 1 2325 1987.50A75 75 0 0 1 2475 1987.50A75 75 0 0 1 2625 1987.50A75 75 0 0 1 2775 1987.50A75 75 0 0 1 2925 1987.50A75 75 0 0 1 3075 1987.50A75 75 0 0 1 3225 1987.50L-75 1987.50" transform="matrix(1,0,0,1,-69.2786865234375,0)" style="fill:rgb(17, 77, 89);transform:matrix(1, 0, 0, 1, -69.2787, 0);;animation:none"></path></g>
<g transform="matrix(1,0,0,1,0,5.677903175354004)" style="transform:matrix(1, 0, 0, 1, 0, 5.6779);;animation:none"><path fill="#114b57" d="M-150 2017.50A75 75 0 0 1 0 2017.50A75 75 0 0 1 150 2017.50A75 75 0 0 1 300 2017.50A75 75 0 0 1 450 2017.50A75 75 0 0 1 600 2017.50A75 75 0 0 1 750 2017.50A75 75 0 0 1 900 2017.50A75 75 0 0 1 1050 2017.50A75 75 0 0 1 1200 2017.50A75 75 0 0 1 1350 2017.50A75 75 0 0 1 1500 2017.50A75 75 0 0 1 1650 2017.50A75 75 0 0 1 1800 2017.50A75 75 0 0 1 1950 2017.50A75 75 0 0 1 2100 2017.50A75 75 0 0 1 2250 2017.50A75 75 0 0 1 2400 2017.50A75 75 0 0 1 2550 2017.50A75 75 0 0 1 2700 2017.50A75 75 0 0 1 2850 2017.50A75 75 0 0 1 3000 2017.50A75 75 0 0 1 3150 2017.50L-150 2017.50" transform="matrix(1,0,0,1,-71.61235046386719,0)" style="fill:rgb(17, 75, 87);transform:matrix(1, 0, 0, 1, -71.6124, 0);;animation:none"></path></g>
<g transform="matrix(1,0,0,1,0,6.775257110595703)" style="transform:matrix(1, 0, 0, 1, 0, 6.77526);;animation:none"><path fill="#124855" d="M-75 2047.50A75 75 0 0 1 75 2047.50A75 75 0 0 1 225 2047.50A75 75 0 0 1 375 2047.50A75 75 0 0 1 525 2047.50A75 75 0 0 1 675 2047.50A75 75 0 0 1 825 2047.50A75 75 0 0 1 975 2047.50A75 75 0 0 1 1125 2047.50A75 75 0 0 1 1275 2047.50A75 75 0 0 1 1425 2047.50A75 75 0 0 1 1575 2047.50A75 75 0 0 1 1725 2047.50A75 75 0 0 1 1875 2047.50A75 75 0 0 1 2025 2047.50A75 75 0 0 1 2175 2047.50A75 75 0 0 1 2325 2047.50A75 75 0 0 1 2475 2047.50A75 75 0 0 1 2625 2047.50A75 75 0 0 1 2775 2047.50A75 75 0 0 1 2925 2047.50A75 75 0 0 1 3075 2047.50A75 75 0 0 1 3225 2047.50L-75 2047.50" transform="matrix(1,0,0,1,-73.4122543334961,0)" style="fill:rgb(18, 72, 85);transform:matrix(1, 0, 0, 1, -73.4123, 0);;animation:none"></path></g>
<g transform="matrix(1,0,0,1,0,7.339025020599365)" style="transform:matrix(1, 0, 0, 1, 0, 7.33903);;animation:none"><path fill="#124652" d="M-150 2077.50A75 75 0 0 1 0 2077.50A75 75 0 0 1 150 2077.50A75 75 0 0 1 300 2077.50A75 75 0 0 1 450 2077.50A75 75 0 0 1 600 2077.50A75 75 0 0 1 750 2077.50A75 75 0 0 1 900 2077.50A75 75 0 0 1 1050 2077.50A75 75 0 0 1 1200 2077.50A75 75 0 0 1 1350 2077.50A75 75 0 0 1 1500 2077.50A75 75 0 0 1 1650 2077.50A75 75 0 0 1 1800 2077.50A75 75 0 0 1 1950 2077.50A75 75 0 0 1 2100 2077.50A75 75 0 0 1 2250 2077.50A75 75 0 0 1 2400 2077.50A75 75 0 0 1 2550 2077.50A75 75 0 0 1 2700 2077.50A75 75 0 0 1 2850 2077.50A75 75 0 0 1 3000 2077.50A75 75 0 0 1 3150 2077.50L-150 2077.50" transform="matrix(1,0,0,1,-74.58051300048828,0)" style="fill:rgb(18, 70, 82);transform:matrix(1, 0, 0, 1, -74.5805, 0);;animation:none"></path></g>
<g transform="matrix(1,0,0,1,0,7.5)" style="transform:matrix(1, 0, 0, 1, 0, 7.5);;animation:none"><path fill="#124350" d="M-75 2107.50A75 75 0 0 1 75 2107.50A75 75 0 0 1 225 2107.50A75 75 0 0 1 375 2107.50A75 75 0 0 1 525 2107.50A75 75 0 0 1 675 2107.50A75 75 0 0 1 825 2107.50A75 75 0 0 1 975 2107.50A75 75 0 0 1 1125 2107.50A75 75 0 0 1 1275 2107.50A75 75 0 0 1 1425 2107.50A75 75 0 0 1 1575 2107.50A75 75 0 0 1 1725 2107.50A75 75 0 0 1 1875 2107.50A75 75 0 0 1 2025 2107.50A75 75 0 0 1 2175 2107.50A75 75 0 0 1 2325 2107.50A75 75 0 0 1 2475 2107.50A75 75 0 0 1 2625 2107.50A75 75 0 0 1 2775 2107.50A75 75 0 0 1 2925 2107.50A75 75 0 0 1 3075 2107.50A75 75 0 0 1 3225 2107.50L-75 2107.50" transform="matrix(1,0,0,1,-75,0)" style="fill:rgb(18, 67, 80);transform:matrix(1, 0, 0, 1, -75, 0);;animation:none"></path></g>
<g transform="matrix(1,0,0,1,0,7.339020252227783)" style="transform:matrix(1, 0, 0, 1, 0, 7.33902);;animation:none"><path fill="#12414e" d="M-150 2137.50A75 75 0 0 1 0 2137.50A75 75 0 0 1 150 2137.50A75 75 0 0 1 300 2137.50A75 75 0 0 1 450 2137.50A75 75 0 0 1 600 2137.50A75 75 0 0 1 750 2137.50A75 75 0 0 1 900 2137.50A75 75 0 0 1 1050 2137.50A75 75 0 0 1 1200 2137.50A75 75 0 0 1 1350 2137.50A75 75 0 0 1 1500 2137.50A75 75 0 0 1 1650 2137.50A75 75 0 0 1 1800 2137.50A75 75 0 0 1 1950 2137.50A75 75 0 0 1 2100 2137.50A75 75 0 0 1 2250 2137.50A75 75 0 0 1 2400 2137.50A75 75 0 0 1 2550 2137.50A75 75 0 0 1 2700 2137.50A75 75 0 0 1 2850 2137.50A75 75 0 0 1 3000 2137.50A75 75 0 0 1 3150 2137.50L-150 2137.50" transform="matrix(1,0,0,1,-74.58052825927734,0)" style="fill:rgb(18, 65, 78);transform:matrix(1, 0, 0, 1, -74.5805, 0);;animation:none"></path></g>
<g transform="matrix(1,0,0,1,0,6.7752461433410645)" style="transform:matrix(1, 0, 0, 1, 0, 6.77525);;animation:none"><path fill="#133e4b" d="M-75 2167.50A75 75 0 0 1 75 2167.50A75 75 0 0 1 225 2167.50A75 75 0 0 1 375 2167.50A75 75 0 0 1 525 2167.50A75 75 0 0 1 675 2167.50A75 75 0 0 1 825 2167.50A75 75 0 0 1 975 2167.50A75 75 0 0 1 1125 2167.50A75 75 0 0 1 1275 2167.50A75 75 0 0 1 1425 2167.50A75 75 0 0 1 1575 2167.50A75 75 0 0 1 1725 2167.50A75 75 0 0 1 1875 2167.50A75 75 0 0 1 2025 2167.50A75 75 0 0 1 2175 2167.50A75 75 0 0 1 2325 2167.50A75 75 0 0 1 2475 2167.50A75 75 0 0 1 2625 2167.50A75 75 0 0 1 2775 2167.50A75 75 0 0 1 2925 2167.50A75 75 0 0 1 3075 2167.50A75 75 0 0 1 3225 2167.50L-75 2167.50" transform="matrix(1,0,0,1,-73.41226196289062,0)" style="fill:rgb(19, 62, 75);transform:matrix(1, 0, 0, 1, -73.4123, 0);;animation:none"></path></g>
<g transform="matrix(1,0,0,1,0,5.677884101867676)" style="transform:matrix(1, 0, 0, 1, 0, 5.67788);;animation:none"><path fill="#133c49" d="M-150 2197.50A75 75 0 0 1 0 2197.50A75 75 0 0 1 150 2197.50A75 75 0 0 1 300 2197.50A75 75 0 0 1 450 2197.50A75 75 0 0 1 600 2197.50A75 75 0 0 1 750 2197.50A75 75 0 0 1 900 2197.50A75 75 0 0 1 1050 2197.50A75 75 0 0 1 1200 2197.50A75 75 0 0 1 1350 2197.50A75 75 0 0 1 1500 2197.50A75 75 0 0 1 1650 2197.50A75 75 0 0 1 1800 2197.50A75 75 0 0 1 1950 2197.50A75 75 0 0 1 2100 2197.50A75 75 0 0 1 2250 2197.50A75 75 0 0 1 2400 2197.50A75 75 0 0 1 2550 2197.50A75 75 0 0 1 2700 2197.50A75 75 0 0 1 2850 2197.50A75 75 0 0 1 3000 2197.50A75 75 0 0 1 3150 2197.50L-150 2197.50" transform="matrix(1,0,0,1,-71.61237335205078,0)" style="fill:rgb(19, 60, 73);transform:matrix(1, 0, 0, 1, -71.6124, 0);;animation:none"></path></g>
<g transform="matrix(1,0,0,1,0,4.049412727355957)" style="transform:matrix(1, 0, 0, 1, 0, 4.04941);;animation:none"><path fill="#133947" d="M-75 2227.50A75 75 0 0 1 75 2227.50A75 75 0 0 1 225 2227.50A75 75 0 0 1 375 2227.50A75 75 0 0 1 525 2227.50A75 75 0 0 1 675 2227.50A75 75 0 0 1 825 2227.50A75 75 0 0 1 975 2227.50A75 75 0 0 1 1125 2227.50A75 75 0 0 1 1275 2227.50A75 75 0 0 1 1425 2227.50A75 75 0 0 1 1575 2227.50A75 75 0 0 1 1725 2227.50A75 75 0 0 1 1875 2227.50A75 75 0 0 1 2025 2227.50A75 75 0 0 1 2175 2227.50A75 75 0 0 1 2325 2227.50A75 75 0 0 1 2475 2227.50A75 75 0 0 1 2625 2227.50A75 75 0 0 1 2775 2227.50A75 75 0 0 1 2925 2227.50A75 75 0 0 1 3075 2227.50A75 75 0 0 1 3225 2227.50L-75 2227.50" transform="matrix(1,0,0,1,-69.27870178222656,0)" style="fill:rgb(19, 57, 71);transform:matrix(1, 0, 0, 1, -69.2787, 0);;animation:none"></path></g>
<g transform="matrix(1,0,0,1,0,2.3164820671081543)" style="transform:matrix(1, 0, 0, 1, 0, 2.31648);;animation:none"><path fill="#133744" d="M-150 2257.50A75 75 0 0 1 0 2257.50A75 75 0 0 1 150 2257.50A75 75 0 0 1 300 2257.50A75 75 0 0 1 450 2257.50A75 75 0 0 1 600 2257.50A75 75 0 0 1 750 2257.50A75 75 0 0 1 900 2257.50A75 75 0 0 1 1050 2257.50A75 75 0 0 1 1200 2257.50A75 75 0 0 1 1350 2257.50A75 75 0 0 1 1500 2257.50A75 75 0 0 1 1650 2257.50A75 75 0 0 1 1800 2257.50A75 75 0 0 1 1950 2257.50A75 75 0 0 1 2100 2257.50A75 75 0 0 1 2250 2257.50A75 75 0 0 1 2400 2257.50A75 75 0 0 1 2550 2257.50A75 75 0 0 1 2700 2257.50A75 75 0 0 1 2850 2257.50A75 75 0 0 1 3000 2257.50A75 75 0 0 1 3150 2257.50L-150 2257.50" transform="matrix(1,0,0,1,-66.49488067626953,0)" style="fill:rgb(19, 55, 68);transform:matrix(1, 0, 0, 1, -66.4949, 0);;animation:none"></path></g>
<g transform="matrix(1,0,0,1,0,1.0257911682128906)" style="transform:matrix(1, 0, 0, 1, 0, 1.02579);;animation:none"><path fill="#143442" d="M-75 2287.50A75 75 0 0 1 75 2287.50A75 75 0 0 1 225 2287.50A75 75 0 0 1 375 2287.50A75 75 0 0 1 525 2287.50A75 75 0 0 1 675 2287.50A75 75 0 0 1 825 2287.50A75 75 0 0 1 975 2287.50A75 75 0 0 1 1125 2287.50A75 75 0 0 1 1275 2287.50A75 75 0 0 1 1425 2287.50A75 75 0 0 1 1575 2287.50A75 75 0 0 1 1725 2287.50A75 75 0 0 1 1875 2287.50A75 75 0 0 1 2025 2287.50A75 75 0 0 1 2175 2287.50A75 75 0 0 1 2325 2287.50A75 75 0 0 1 2475 2287.50A75 75 0 0 1 2625 2287.50A75 75 0 0 1 2775 2287.50A75 75 0 0 1 2925 2287.50A75 75 0 0 1 3075 2287.50A75 75 0 0 1 3225 2287.50L-75 2287.50" transform="matrix(1,0,0,1,-63.33329391479492,0)" style="fill:rgb(20, 52, 66);transform:matrix(1, 0, 0, 1, -63.3333, 0);;animation:none"></path></g>
<g transform="matrix(1,0,0,1,0,0.2975654602050781)" style="transform:matrix(1, 0, 0, 1, 0, 0.297565);;animation:none"><path fill="#143240" d="M-150 2317.50A75 75 0 0 1 0 2317.50A75 75 0 0 1 150 2317.50A75 75 0 0 1 300 2317.50A75 75 0 0 1 450 2317.50A75 75 0 0 1 600 2317.50A75 75 0 0 1 750 2317.50A75 75 0 0 1 900 2317.50A75 75 0 0 1 1050 2317.50A75 75 0 0 1 1200 2317.50A75 75 0 0 1 1350 2317.50A75 75 0 0 1 1500 2317.50A75 75 0 0 1 1650 2317.50A75 75 0 0 1 1800 2317.50A75 75 0 0 1 1950 2317.50A75 75 0 0 1 2100 2317.50A75 75 0 0 1 2250 2317.50A75 75 0 0 1 2400 2317.50A75 75 0 0 1 2550 2317.50A75 75 0 0 1 2700 2317.50A75 75 0 0 1 2850 2317.50A75 75 0 0 1 3000 2317.50A75 75 0 0 1 3150 2317.50L-150 2317.50" transform="matrix(1,0,0,1,-59.858158111572266,0)" style="fill:rgb(20, 50, 64);transform:matrix(1, 0, 0, 1, -59.8582, 0);;animation:none"></path></g>
<g transform="matrix(1,0,0,1,0,0.01658773422241211)" style="transform:matrix(1, 0, 0, 1, 0, 0.0165877);;animation:none"><path fill="#142f3d" d="M-75 2347.50A75 75 0 0 1 75 2347.50A75 75 0 0 1 225 2347.50A75 75 0 0 1 375 2347.50A75 75 0 0 1 525 2347.50A75 75 0 0 1 675 2347.50A75 75 0 0 1 825 2347.50A75 75 0 0 1 975 2347.50A75 75 0 0 1 1125 2347.50A75 75 0 0 1 1275 2347.50A75 75 0 0 1 1425 2347.50A75 75 0 0 1 1575 2347.50A75 75 0 0 1 1725 2347.50A75 75 0 0 1 1875 2347.50A75 75 0 0 1 2025 2347.50A75 75 0 0 1 2175 2347.50A75 75 0 0 1 2325 2347.50A75 75 0 0 1 2475 2347.50A75 75 0 0 1 2625 2347.50A75 75 0 0 1 2775 2347.50A75 75 0 0 1 2925 2347.50A75 75 0 0 1 3075 2347.50A75 75 0 0 1 3225 2347.50L-75 2347.50" transform="matrix(1,0,0,1,-56.126861572265625,0)" style="fill:rgb(20, 47, 61);transform:matrix(1, 0, 0, 1, -56.1269, 0);;animation:none"></path></g>
<g transform="matrix(1,0,0,1,0,-0.06886912137269974)" style="transform:matrix(1, 0, 0, 1, 0, -0.0688691);;animation:none"><path fill="#142d3b" d="M-150 2377.50A75 75 0 0 1 0 2377.50A75 75 0 0 1 150 2377.50A75 75 0 0 1 300 2377.50A75 75 0 0 1 450 2377.50A75 75 0 0 1 600 2377.50A75 75 0 0 1 750 2377.50A75 75 0 0 1 900 2377.50A75 75 0 0 1 1050 2377.50A75 75 0 0 1 1200 2377.50A75 75 0 0 1 1350 2377.50A75 75 0 0 1 1500 2377.50A75 75 0 0 1 1650 2377.50A75 75 0 0 1 1800 2377.50A75 75 0 0 1 1950 2377.50A75 75 0 0 1 2100 2377.50A75 75 0 0 1 2250 2377.50A75 75 0 0 1 2400 2377.50A75 75 0 0 1 2550 2377.50A75 75 0 0 1 2700 2377.50A75 75 0 0 1 2850 2377.50A75 75 0 0 1 3000 2377.50A75 75 0 0 1 3150 2377.50L-150 2377.50" transform="matrix(1,0,0,1,-52.19208526611328,0)" style="fill:rgb(20, 45, 59);transform:matrix(1, 0, 0, 1, -52.1921, 0);;animation:none"></path></g>
<g transform="matrix(1,0,0,1,0,-0.48371678590774536)" style="transform:matrix(1, 0, 0, 1, 0, -0.483717);;animation:none"><path fill="#152a39" d="M-75 2407.50A75 75 0 0 1 75 2407.50A75 75 0 0 1 225 2407.50A75 75 0 0 1 375 2407.50A75 75 0 0 1 525 2407.50A75 75 0 0 1 675 2407.50A75 75 0 0 1 825 2407.50A75 75 0 0 1 975 2407.50A75 75 0 0 1 1125 2407.50A75 75 0 0 1 1275 2407.50A75 75 0 0 1 1425 2407.50A75 75 0 0 1 1575 2407.50A75 75 0 0 1 1725 2407.50A75 75 0 0 1 1875 2407.50A75 75 0 0 1 2025 2407.50A75 75 0 0 1 2175 2407.50A75 75 0 0 1 2325 2407.50A75 75 0 0 1 2475 2407.50A75 75 0 0 1 2625 2407.50A75 75 0 0 1 2775 2407.50A75 75 0 0 1 2925 2407.50A75 75 0 0 1 3075 2407.50A75 75 0 0 1 3225 2407.50L-75 2407.50" transform="matrix(1,0,0,1,-48.10265350341797,0)" style="fill:rgb(21, 42, 57);transform:matrix(1, 0, 0, 1, -48.1027, 0);;animation:none"></path></g>
<g transform="matrix(1,0,0,1,0,-1.3910223245620728)" style="transform:matrix(1, 0, 0, 1, 0, -1.39102);;animation:none"><path fill="#152836" d="M-150 2437.50A75 75 0 0 1 0 2437.50A75 75 0 0 1 150 2437.50A75 75 0 0 1 300 2437.50A75 75 0 0 1 450 2437.50A75 75 0 0 1 600 2437.50A75 75 0 0 1 750 2437.50A75 75 0 0 1 900 2437.50A75 75 0 0 1 1050 2437.50A75 75 0 0 1 1200 2437.50A75 75 0 0 1 1350 2437.50A75 75 0 0 1 1500 2437.50A75 75 0 0 1 1650 2437.50A75 75 0 0 1 1800 2437.50A75 75 0 0 1 1950 2437.50A75 75 0 0 1 2100 2437.50A75 75 0 0 1 2250 2437.50A75 75 0 0 1 2400 2437.50A75 75 0 0 1 2550 2437.50A75 75 0 0 1 2700 2437.50A75 75 0 0 1 2850 2437.50A75 75 0 0 1 3000 2437.50A75 75 0 0 1 3150 2437.50L-150 2437.50" transform="matrix(1,0,0,1,-43.9045295715332,0)" style="fill:rgb(21, 40, 54);transform:matrix(1, 0, 0, 1, -43.9045, 0);;animation:none"></path></g>
<g transform="matrix(1,0,0,1,0,-2.8649868965148926)" style="transform:matrix(1, 0, 0, 1, 0, -2.86499);;animation:none"><path fill="#152534" d="M-75 2467.50A75 75 0 0 1 75 2467.50A75 75 0 0 1 225 2467.50A75 75 0 0 1 375 2467.50A75 75 0 0 1 525 2467.50A75 75 0 0 1 675 2467.50A75 75 0 0 1 825 2467.50A75 75 0 0 1 975 2467.50A75 75 0 0 1 1125 2467.50A75 75 0 0 1 1275 2467.50A75 75 0 0 1 1425 2467.50A75 75 0 0 1 1575 2467.50A75 75 0 0 1 1725 2467.50A75 75 0 0 1 1875 2467.50A75 75 0 0 1 2025 2467.50A75 75 0 0 1 2175 2467.50A75 75 0 0 1 2325 2467.50A75 75 0 0 1 2475 2467.50A75 75 0 0 1 2625 2467.50A75 75 0 0 1 2775 2467.50A75 75 0 0 1 2925 2467.50A75 75 0 0 1 3075 2467.50A75 75 0 0 1 3225 2467.50L-75 2467.50" transform="matrix(1,0,0,1,-39.641990661621094,0)" style="fill:rgb(21, 37, 52);transform:matrix(1, 0, 0, 1, -39.642, 0);;animation:none"></path></g>
<g transform="matrix(1,0,0,1,0,-4.635036945343018)" style="transform:matrix(1, 0, 0, 1, 0, -4.63504);;animation:none"><path fill="#152332" d="M-150 2497.50A75 75 0 0 1 0 2497.50A75 75 0 0 1 150 2497.50A75 75 0 0 1 300 2497.50A75 75 0 0 1 450 2497.50A75 75 0 0 1 600 2497.50A75 75 0 0 1 750 2497.50A75 75 0 0 1 900 2497.50A75 75 0 0 1 1050 2497.50A75 75 0 0 1 1200 2497.50A75 75 0 0 1 1350 2497.50A75 75 0 0 1 1500 2497.50A75 75 0 0 1 1650 2497.50A75 75 0 0 1 1800 2497.50A75 75 0 0 1 1950 2497.50A75 75 0 0 1 2100 2497.50A75 75 0 0 1 2250 2497.50A75 75 0 0 1 2400 2497.50A75 75 0 0 1 2550 2497.50A75 75 0 0 1 2700 2497.50A75 75 0 0 1 2850 2497.50A75 75 0 0 1 3000 2497.50A75 75 0 0 1 3150 2497.50L-150 2497.50" transform="matrix(1,0,0,1,-35.3580322265625,0)" style="fill:rgb(21, 35, 50);transform:matrix(1, 0, 0, 1, -35.358, 0);;animation:none"></path></g>
<g transform="matrix(1,0,0,1,0,-6.108994483947754)" style="transform:matrix(1, 0, 0, 1, 0, -6.10899);;animation:none"><path fill="#16202f" d="M-75 2527.50A75 75 0 0 1 75 2527.50A75 75 0 0 1 225 2527.50A75 75 0 0 1 375 2527.50A75 75 0 0 1 525 2527.50A75 75 0 0 1 675 2527.50A75 75 0 0 1 825 2527.50A75 75 0 0 1 975 2527.50A75 75 0 0 1 1125 2527.50A75 75 0 0 1 1275 2527.50A75 75 0 0 1 1425 2527.50A75 75 0 0 1 1575 2527.50A75 75 0 0 1 1725 2527.50A75 75 0 0 1 1875 2527.50A75 75 0 0 1 2025 2527.50A75 75 0 0 1 2175 2527.50A75 75 0 0 1 2325 2527.50A75 75 0 0 1 2475 2527.50A75 75 0 0 1 2625 2527.50A75 75 0 0 1 2775 2527.50A75 75 0 0 1 2925 2527.50A75 75 0 0 1 3075 2527.50A75 75 0 0 1 3225 2527.50L-75 2527.50" transform="matrix(1,0,0,1,-31.09549331665039,0)" style="fill:rgb(22, 32, 47);transform:matrix(1, 0, 0, 1, -31.0955, 0);;animation:none"></path></g>
<g transform="matrix(1,0,0,1,0,-7.016292095184326)" style="transform:matrix(1, 0, 0, 1, 0, -7.01629);;animation:none"><path fill="#161e2d" d="M-150 2557.50A75 75 0 0 1 0 2557.50A75 75 0 0 1 150 2557.50A75 75 0 0 1 300 2557.50A75 75 0 0 1 450 2557.50A75 75 0 0 1 600 2557.50A75 75 0 0 1 750 2557.50A75 75 0 0 1 900 2557.50A75 75 0 0 1 1050 2557.50A75 75 0 0 1 1200 2557.50A75 75 0 0 1 1350 2557.50A75 75 0 0 1 1500 2557.50A75 75 0 0 1 1650 2557.50A75 75 0 0 1 1800 2557.50A75 75 0 0 1 1950 2557.50A75 75 0 0 1 2100 2557.50A75 75 0 0 1 2250 2557.50A75 75 0 0 1 2400 2557.50A75 75 0 0 1 2550 2557.50A75 75 0 0 1 2700 2557.50A75 75 0 0 1 2850 2557.50A75 75 0 0 1 3000 2557.50A75 75 0 0 1 3150 2557.50L-150 2557.50" transform="matrix(1,0,0,1,-26.89736557006836,0)" style="fill:rgb(22, 30, 45);transform:matrix(1, 0, 0, 1, -26.8974, 0);;animation:none"></path></g>
<g transform="matrix(1,0,0,1,0,-7.4311370849609375)" style="transform:matrix(1, 0, 0, 1, 0, -7.43114);;animation:none"><path fill="#161b2b" d="M-75 2587.50A75 75 0 0 1 75 2587.50A75 75 0 0 1 225 2587.50A75 75 0 0 1 375 2587.50A75 75 0 0 1 525 2587.50A75 75 0 0 1 675 2587.50A75 75 0 0 1 825 2587.50A75 75 0 0 1 975 2587.50A75 75 0 0 1 1125 2587.50A75 75 0 0 1 1275 2587.50A75 75 0 0 1 1425 2587.50A75 75 0 0 1 1575 2587.50A75 75 0 0 1 1725 2587.50A75 75 0 0 1 1875 2587.50A75 75 0 0 1 2025 2587.50A75 75 0 0 1 2175 2587.50A75 75 0 0 1 2325 2587.50A75 75 0 0 1 2475 2587.50A75 75 0 0 1 2625 2587.50A75 75 0 0 1 2775 2587.50A75 75 0 0 1 2925 2587.50A75 75 0 0 1 3075 2587.50A75 75 0 0 1 3225 2587.50L-75 2587.50" transform="matrix(1,0,0,1,-22.807891845703125,0)" style="fill:rgb(22, 27, 43);transform:matrix(1, 0, 0, 1, -22.8079, 0);;animation:none"></path></g>
<g transform="matrix(1,0,0,1,0,-7.483410835266113)" style="transform:matrix(1, 0, 0, 1, 0, -7.48341);;animation:none"><path fill="#161928" d="M-150 2617.50A75 75 0 0 1 0 2617.50A75 75 0 0 1 150 2617.50A75 75 0 0 1 300 2617.50A75 75 0 0 1 450 2617.50A75 75 0 0 1 600 2617.50A75 75 0 0 1 750 2617.50A75 75 0 0 1 900 2617.50A75 75 0 0 1 1050 2617.50A75 75 0 0 1 1200 2617.50A75 75 0 0 1 1350 2617.50A75 75 0 0 1 1500 2617.50A75 75 0 0 1 1650 2617.50A75 75 0 0 1 1800 2617.50A75 75 0 0 1 1950 2617.50A75 75 0 0 1 2100 2617.50A75 75 0 0 1 2250 2617.50A75 75 0 0 1 2400 2617.50A75 75 0 0 1 2550 2617.50A75 75 0 0 1 2700 2617.50A75 75 0 0 1 2850 2617.50A75 75 0 0 1 3000 2617.50A75 75 0 0 1 3150 2617.50L-150 2617.50" transform="matrix(1,0,0,1,-18.873157501220703,0)" style="fill:rgb(22, 25, 40);transform:matrix(1, 0, 0, 1, -18.8732, 0);;animation:none"></path></g>
<g transform="matrix(1,0,0,1,0,-7.202427864074707)" style="transform:matrix(1, 0, 0, 1, 0, -7.20243);;animation:none"><path fill="#171626" d="M-75 2647.50A75 75 0 0 1 75 2647.50A75 75 0 0 1 225 2647.50A75 75 0 0 1 375 2647.50A75 75 0 0 1 525 2647.50A75 75 0 0 1 675 2647.50A75 75 0 0 1 825 2647.50A75 75 0 0 1 975 2647.50A75 75 0 0 1 1125 2647.50A75 75 0 0 1 1275 2647.50A75 75 0 0 1 1425 2647.50A75 75 0 0 1 1575 2647.50A75 75 0 0 1 1725 2647.50A75 75 0 0 1 1875 2647.50A75 75 0 0 1 2025 2647.50A75 75 0 0 1 2175 2647.50A75 75 0 0 1 2325 2647.50A75 75 0 0 1 2475 2647.50A75 75 0 0 1 2625 2647.50A75 75 0 0 1 2775 2647.50A75 75 0 0 1 2925 2647.50A75 75 0 0 1 3075 2647.50A75 75 0 0 1 3225 2647.50L-75 2647.50" transform="matrix(1,0,0,1,-15.141887664794922,0)" style="fill:rgb(23, 22, 38);transform:matrix(1, 0, 0, 1, -15.1419, 0);;animation:none"></path></g>
<g transform="matrix(1,0,0,1,0,-6.474194049835205)" style="transform:matrix(1, 0, 0, 1, 0, -6.47419);;animation:none"><path fill="#171424" d="M-150 2677.50A75 75 0 0 1 0 2677.50A75 75 0 0 1 150 2677.50A75 75 0 0 1 300 2677.50A75 75 0 0 1 450 2677.50A75 75 0 0 1 600 2677.50A75 75 0 0 1 750 2677.50A75 75 0 0 1 900 2677.50A75 75 0 0 1 1050 2677.50A75 75 0 0 1 1200 2677.50A75 75 0 0 1 1350 2677.50A75 75 0 0 1 1500 2677.50A75 75 0 0 1 1650 2677.50A75 75 0 0 1 1800 2677.50A75 75 0 0 1 1950 2677.50A75 75 0 0 1 2100 2677.50A75 75 0 0 1 2250 2677.50A75 75 0 0 1 2400 2677.50A75 75 0 0 1 2550 2677.50A75 75 0 0 1 2700 2677.50A75 75 0 0 1 2850 2677.50A75 75 0 0 1 3000 2677.50A75 75 0 0 1 3150 2677.50L-150 2677.50" transform="matrix(1,0,0,1,-11.666728973388672,0)" style="fill:rgb(23, 20, 36);transform:matrix(1, 0, 0, 1, -11.6667, 0);;animation:none"></path></g>
<g transform="matrix(1,0,0,1,0,-5.183495998382568)" style="transform:matrix(1, 0, 0, 1, 0, -5.1835);;animation:none"><path fill="#171121" d="M-75 2707.50A75 75 0 0 1 75 2707.50A75 75 0 0 1 225 2707.50A75 75 0 0 1 375 2707.50A75 75 0 0 1 525 2707.50A75 75 0 0 1 675 2707.50A75 75 0 0 1 825 2707.50A75 75 0 0 1 975 2707.50A75 75 0 0 1 1125 2707.50A75 75 0 0 1 1275 2707.50A75 75 0 0 1 1425 2707.50A75 75 0 0 1 1575 2707.50A75 75 0 0 1 1725 2707.50A75 75 0 0 1 1875 2707.50A75 75 0 0 1 2025 2707.50A75 75 0 0 1 2175 2707.50A75 75 0 0 1 2325 2707.50A75 75 0 0 1 2475 2707.50A75 75 0 0 1 2625 2707.50A75 75 0 0 1 2775 2707.50A75 75 0 0 1 2925 2707.50A75 75 0 0 1 3075 2707.50A75 75 0 0 1 3225 2707.50L-75 2707.50" transform="matrix(1,0,0,1,-8.505149841308594,0)" style="fill:rgb(23, 17, 33);transform:matrix(1, 0, 0, 1, -8.50515, 0);;animation:none"></path></g>
<g transform="matrix(1,0,0,1,0,-3.4505605697631836)" style="transform:matrix(1, 0, 0, 1, 0, -3.45056);;animation:none"><path fill="#170f1f" d="M-150 2737.50A75 75 0 0 1 0 2737.50A75 75 0 0 1 150 2737.50A75 75 0 0 1 300 2737.50A75 75 0 0 1 450 2737.50A75 75 0 0 1 600 2737.50A75 75 0 0 1 750 2737.50A75 75 0 0 1 900 2737.50A75 75 0 0 1 1050 2737.50A75 75 0 0 1 1200 2737.50A75 75 0 0 1 1350 2737.50A75 75 0 0 1 1500 2737.50A75 75 0 0 1 1650 2737.50A75 75 0 0 1 1800 2737.50A75 75 0 0 1 1950 2737.50A75 75 0 0 1 2100 2737.50A75 75 0 0 1 2250 2737.50A75 75 0 0 1 2400 2737.50A75 75 0 0 1 2550 2737.50A75 75 0 0 1 2700 2737.50A75 75 0 0 1 2850 2737.50A75 75 0 0 1 3000 2737.50A75 75 0 0 1 3150 2737.50L-150 2737.50" transform="matrix(1,0,0,1,-5.7213134765625,0)" style="fill:rgb(23, 15, 31);transform:matrix(1, 0, 0, 1, -5.72131, 0);;animation:none"></path></g>
<g transform="matrix(1,0,0,1,0,-1.8220977783203125)" style="transform:matrix(1, 0, 0, 1, 0, -1.8221);;animation:none"><path fill="#180c1d" d="M-75 2767.50A75 75 0 0 1 75 2767.50A75 75 0 0 1 225 2767.50A75 75 0 0 1 375 2767.50A75 75 0 0 1 525 2767.50A75 75 0 0 1 675 2767.50A75 75 0 0 1 825 2767.50A75 75 0 0 1 975 2767.50A75 75 0 0 1 1125 2767.50A75 75 0 0 1 1275 2767.50A75 75 0 0 1 1425 2767.50A75 75 0 0 1 1575 2767.50A75 75 0 0 1 1725 2767.50A75 75 0 0 1 1875 2767.50A75 75 0 0 1 2025 2767.50A75 75 0 0 1 2175 2767.50A75 75 0 0 1 2325 2767.50A75 75 0 0 1 2475 2767.50A75 75 0 0 1 2625 2767.50A75 75 0 0 1 2775 2767.50A75 75 0 0 1 2925 2767.50A75 75 0 0 1 3075 2767.50A75 75 0 0 1 3225 2767.50L-75 2767.50" transform="matrix(1,0,0,1,-3.3876495361328125,0)" style="fill:rgb(24, 12, 29);transform:matrix(1, 0, 0, 1, -3.38765, 0);;animation:none"></path></g>
<g transform="matrix(1,0,0,1,0,-0.7247314453125)" style="transform:matrix(1, 0, 0, 1, 0, -0.724731);;animation:none"><path fill="#180a1a" d="M-150 2797.50A75 75 0 0 1 0 2797.50A75 75 0 0 1 150 2797.50A75 75 0 0 1 300 2797.50A75 75 0 0 1 450 2797.50A75 75 0 0 1 600 2797.50A75 75 0 0 1 750 2797.50A75 75 0 0 1 900 2797.50A75 75 0 0 1 1050 2797.50A75 75 0 0 1 1200 2797.50A75 75 0 0 1 1350 2797.50A75 75 0 0 1 1500 2797.50A75 75 0 0 1 1650 2797.50A75 75 0 0 1 1800 2797.50A75 75 0 0 1 1950 2797.50A75 75 0 0 1 2100 2797.50A75 75 0 0 1 2250 2797.50A75 75 0 0 1 2400 2797.50A75 75 0 0 1 2550 2797.50A75 75 0 0 1 2700 2797.50A75 75 0 0 1 2850 2797.50A75 75 0 0 1 3000 2797.50A75 75 0 0 1 3150 2797.50L-150 2797.50" transform="matrix(1,0,0,1,-1.5877304077148438,0)" style="fill:rgb(24, 10, 26);transform:matrix(1, 0, 0, 1, -1.58773, 0);;animation:none"></path></g>
<g transform="matrix(1,0,0,1,0,-0.16097545623779297)" style="transform:matrix(1, 0, 0, 1, 0, -0.160975);;animation:none"><path fill="#180718" d="M-75 2827.50A75 75 0 0 1 75 2827.50A75 75 0 0 1 225 2827.50A75 75 0 0 1 375 2827.50A75 75 0 0 1 525 2827.50A75 75 0 0 1 675 2827.50A75 75 0 0 1 825 2827.50A75 75 0 0 1 975 2827.50A75 75 0 0 1 1125 2827.50A75 75 0 0 1 1275 2827.50A75 75 0 0 1 1425 2827.50A75 75 0 0 1 1575 2827.50A75 75 0 0 1 1725 2827.50A75 75 0 0 1 1875 2827.50A75 75 0 0 1 2025 2827.50A75 75 0 0 1 2175 2827.50A75 75 0 0 1 2325 2827.50A75 75 0 0 1 2475 2827.50A75 75 0 0 1 2625 2827.50A75 75 0 0 1 2775 2827.50A75 75 0 0 1 2925 2827.50A75 75 0 0 1 3075 2827.50A75 75 0 0 1 3225 2827.50L-75 2827.50" transform="matrix(1,0,0,1,-0.41948699951171875,0)" style="fill:rgb(24, 7, 24);transform:matrix(1, 0, 0, 1, -0.419487, 0);;animation:none"></path></g>
<g></g></g><!-- [ldio] generated by https://loading.io --></svg>